<svg width="54" height="90" viewBox="0 0 54 90" fill="none" xmlns="http://www.w3.org/2000/svg">
<path d="M38.4824 88.1524H39.4824V87.1524V69.1747H40.3262V87.1524V88.1524H41.3262H46.3007C46.5326 88.1524 46.7226 88.3406 46.7226 88.5762C46.7226 88.8107 46.5317 89 46.3007 89H33.5078C33.2763 89 33.0859 88.8112 33.0859 88.5762C33.0859 88.3396 33.2747 88.1524 33.5078 88.1524H38.4824Z" fill="#5690FF" stroke="#5271FF" stroke-width="2"/>
<path d="M49.3245 39.8352L49.3251 39.8367C49.4379 40.1085 50.9215 43.7606 51.7258 48.2987C52.5402 52.894 52.6034 58.1032 50.1931 61.7117L50.1931 61.7117C48.2237 64.6607 44.8519 66.2514 39.9042 66.2514C34.9557 66.2514 31.5848 64.6608 29.6143 61.7117C27.204 58.1027 27.2675 52.8935 28.082 48.2984C28.8864 43.7606 30.3699 40.1087 30.4829 39.8353L30.4836 39.8337C30.548 39.677 30.7019 39.574 30.8708 39.574H48.9366C49.1043 39.574 49.2587 39.676 49.3245 39.8352ZM28.6448 50.175L28.6365 50.2391V50.3037V50.3047V51.3047H29.6365H46.9929C47.3346 53.3647 47.4773 55.5666 47.1569 57.5556C46.796 59.7949 45.8674 61.6724 44.0626 62.8502L44.9388 64.6318C46.8621 63.9601 48.4174 62.8499 49.4908 61.2433C51.593 58.0993 51.6483 53.7366 51.1339 49.9646C50.6125 46.1408 49.4667 42.6598 48.8954 41.0794L48.6567 40.4194H47.9549H31.8503H31.1489L30.9101 41.0789C30.3277 42.687 29.1517 46.2686 28.6448 50.175Z" fill="#5690FF" stroke="#5271FF" stroke-width="2"/>
<path d="M8.10459 26.1797L8.73984 25.9309V25.2486V6.67752V5.67752H7.73984H7.64836V3.39975H7.73984H8.73984V2.39975V1.35052H17.176V2.39975V3.39975H18.176H18.2675V5.67752H18.176H17.5388H17.176H16.5388H14.9016H13.9016V6.67752V27.4484V28.1305L14.5367 28.3794L15.0568 28.5833L15.0576 28.5836C18.6954 30.0057 20.9605 33.5837 20.961 38.3547C20.961 38.3552 20.961 38.3557 20.961 38.3562L20.9591 39.1472H2.31763H1.68058L1.68042 36.72C1.68042 36.72 1.68042 36.72 1.68042 36.72C1.68044 31.6326 4.18457 27.7154 8.10459 26.1797ZM2.31763 73.8067H20.8886L20.8601 87.9299C18.809 88.5823 16.0218 89 12.9073 89C9.62241 89 6.68982 88.539 4.60935 87.8224C3.56452 87.4625 2.78783 87.0562 2.29038 86.6532C1.78971 86.2477 1.68788 85.947 1.68362 85.7824C1.68357 85.7807 1.68354 85.779 1.68352 85.7774L1.68284 73.8067H2.31763ZM19.9565 27.3563C21.8517 28.742 23.215 30.8261 23.8448 33.3831C23.0791 30.9922 21.7513 28.918 19.9565 27.3563Z" fill="#5690FF" stroke="#5271FF" stroke-width="2"/>
</svg>
