<svg width="61" height="90" viewBox="0 0 61 90" fill="none" xmlns="http://www.w3.org/2000/svg">
<path d="M44.2675 86.2118C45.6839 86.9185 47.4124 87.027 49.1 87.0477C49.1406 87.0485 49.1815 87.049 49.2226 87.049L49.2345 85.0491C49.2005 85.0487 49.1667 85.0484 49.1329 85.0479C47.5898 85.0144 46.5602 84.2198 45.8769 83.3631C45.526 82.9232 45.2782 82.4787 45.1186 82.1429C45.0829 82.0678 45.0519 81.9988 45.0254 81.9373L45.0261 81.9356L44.8886 81.5718C44.7912 81.314 44.7073 81.0312 44.6435 80.704L43.4291 71.6329H54.2563H54.6118H56.131H56.5578L54.1187 89H50.4745H50.0308H42.7831L42.1066 84.1829C42.642 85.1015 43.3685 85.7632 44.2675 86.2118Z" fill="#5690FF" stroke="#5271FF" stroke-width="2"/>
<path d="M20.6936 7.01386H22.7056C22.5934 7.42878 22.4155 7.78884 22.1998 8.07216C21.8255 8.56393 21.3806 8.78126 20.9681 8.78126H12.23C11.8163 8.78126 11.371 8.56358 10.9967 8.07199C10.7809 7.78873 10.603 7.42873 10.4908 7.01386H12.5027H13.3479L13.4888 6.18048C13.7685 4.52532 14.2797 3.16664 14.8922 2.25059C15.5181 1.31444 16.1287 1.00006 16.5977 1.00006C16.9898 1.00006 17.473 1.21332 17.996 1.83878C18.4315 2.35959 18.8389 3.10693 19.1677 4.04636C18.7099 4.41295 18.2122 4.64814 17.7812 4.79686C17.5014 4.8934 17.2599 4.94993 17.0927 4.9818C17.0094 4.99766 16.9456 5.00721 16.9061 5.0125C16.8863 5.01514 16.8727 5.01671 16.8658 5.01746C16.8623 5.01783 16.8606 5.018 16.8606 5.018L16.8619 5.01788L16.8636 5.01772L16.8647 5.01763L16.8653 5.01757C16.8654 5.01757 16.8655 5.01756 16.8664 5.028L16.9514 7.01386H20.6936Z" fill="#5690FF" stroke="#5271FF" stroke-width="2"/>
<mask id="path-3-inside-1" fill="white">
<path d="M59.8608 50.6936L58.2633 51.5216C58.4496 51.8816 58.5954 52.2542 58.7232 52.6322L50.0121 57.1322L41.3019 61.634C41.0679 61.3145 40.8465 60.9788 40.6602 60.6179L39.0618 61.4441C40.9203 65.0423 44.7912 67.0097 48.906 66.8792C50.7114 66.8234 52.5645 66.3626 54.3132 65.4572C57.0771 64.0298 59.1786 61.7204 60.2334 58.9538C61.2981 56.1557 61.1685 53.2217 59.8608 50.6936ZM51.3171 58.6829L56.4516 61.6268C55.7163 62.408 54.8478 63.083 53.8767 63.6329L51.3171 58.6829ZM50.5197 59.096L53.0793 64.0478C52.056 64.5257 51.0021 64.8371 49.9527 64.9811L50.5197 59.096ZM41.8878 62.3441L48.7782 58.781L44.8209 64.3592C43.7022 63.8984 42.7023 63.2216 41.8878 62.3441ZM45.702 64.6733L49.6071 59.1698L49.0401 65.0675C47.8854 65.1251 46.7577 64.9883 45.702 64.6733ZM57.051 60.9329L51.9057 57.9818H58.6575C58.6206 58.0925 58.5909 58.205 58.5486 58.3139C58.1904 59.258 57.681 60.1364 57.051 60.9329ZM58.914 57.0818H52.0695L58.9617 53.5223C59.2056 54.6734 59.1885 55.8794 58.914 57.0818Z"/>
</mask>
<path d="M59.8608 50.6936L58.2633 51.5216C58.4496 51.8816 58.5954 52.2542 58.7232 52.6322L50.0121 57.1322L41.3019 61.634C41.0679 61.3145 40.8465 60.9788 40.6602 60.6179L39.0618 61.4441C40.9203 65.0423 44.7912 67.0097 48.906 66.8792C50.7114 66.8234 52.5645 66.3626 54.3132 65.4572C57.0771 64.0298 59.1786 61.7204 60.2334 58.9538C61.2981 56.1557 61.1685 53.2217 59.8608 50.6936ZM51.3171 58.6829L56.4516 61.6268C55.7163 62.408 54.8478 63.083 53.8767 63.6329L51.3171 58.6829ZM50.5197 59.096L53.0793 64.0478C52.056 64.5257 51.0021 64.8371 49.9527 64.9811L50.5197 59.096ZM41.8878 62.3441L48.7782 58.781L44.8209 64.3592C43.7022 63.8984 42.7023 63.2216 41.8878 62.3441ZM45.702 64.6733L49.6071 59.1698L49.0401 65.0675C47.8854 65.1251 46.7577 64.9883 45.702 64.6733ZM57.051 60.9329L51.9057 57.9818H58.6575C58.6206 58.0925 58.5909 58.205 58.5486 58.3139C58.1904 59.258 57.681 60.1364 57.051 60.9329ZM58.914 57.0818H52.0695L58.9617 53.5223C59.2056 54.6734 59.1885 55.8794 58.914 57.0818Z" fill="#5690FF"/>
<path d="M59.8608 50.6936L61.6372 49.7747L60.7175 47.9968L58.9404 48.9179L59.8608 50.6936ZM58.2633 51.5216L57.3429 49.7459L55.5684 50.6657L56.487 52.4408L58.2633 51.5216ZM58.7232 52.6322L59.6411 54.4091L61.1684 53.6201L60.6178 51.9916L58.7232 52.6322ZM50.0121 57.1322L49.0941 55.3553L49.0938 55.3555L50.0121 57.1322ZM41.3019 61.634L39.6883 62.8157L40.6997 64.1966L42.2202 63.4107L41.3019 61.634ZM40.6602 60.6179L42.4373 59.7005L41.5195 57.9223L39.7418 58.8412L40.6602 60.6179ZM39.0618 61.4441L38.1434 59.6674L36.3673 60.5855L37.2848 62.3619L39.0618 61.4441ZM48.906 66.8792L48.8442 64.8801L48.8426 64.8802L48.906 66.8792ZM54.3132 65.4572L53.3954 63.6802L53.3936 63.6811L54.3132 65.4572ZM60.2334 58.9538L62.1021 59.6663L62.1026 59.6651L60.2334 58.9538ZM51.3171 58.6829L52.3119 56.9479L46.4222 53.571L49.5405 59.6015L51.3171 58.6829ZM56.4516 61.6268L57.9079 62.9976L59.6448 61.1522L57.4464 59.8918L56.4516 61.6268ZM53.8767 63.6329L52.1001 64.5515L53.0544 66.3969L54.8622 65.3732L53.8767 63.6329ZM50.5197 59.096L52.2963 58.1776L49.1798 52.1483L48.5289 58.9042L50.5197 59.096ZM53.0793 64.0478L53.9256 65.8599L55.812 64.9789L54.8559 63.1294L53.0793 64.0478ZM49.9527 64.9811L47.9619 64.7893L47.7194 67.3063L50.2246 66.9625L49.9527 64.9811ZM41.8878 62.3441L40.9691 60.5676L38.6319 61.7762L40.4219 63.7047L41.8878 62.3441ZM48.7782 58.781L50.4094 59.9382L47.8595 57.0045L48.7782 58.781ZM44.8209 64.3592L44.0591 66.2085L45.531 66.8147L46.4521 65.5164L44.8209 64.3592ZM45.702 64.6733L44.0709 63.5159L42.4559 65.7919L45.1301 66.5898L45.702 64.6733ZM49.6071 59.1698L51.5979 59.3612L52.3155 51.8966L47.976 58.0124L49.6071 59.1698ZM49.0401 65.0675L49.1397 67.065L50.8655 66.9789L51.0309 65.2589L49.0401 65.0675ZM57.051 60.9329L56.0559 62.6678L57.5506 63.5251L58.6196 62.1736L57.051 60.9329ZM51.9057 57.9818V55.9818H44.3987L50.9106 59.7167L51.9057 57.9818ZM58.6575 57.9818L60.5548 58.6143L61.4323 55.9818H58.6575V57.9818ZM58.5486 58.3139L56.6843 57.5897L56.6814 57.5971L56.6786 57.6044L58.5486 58.3139ZM58.914 57.0818V59.0818H60.5088L60.8638 57.5269L58.914 57.0818ZM52.0695 57.0818L51.1517 55.3048L52.0695 59.0818V57.0818ZM58.9617 53.5223L60.9182 53.1077L60.3745 50.5417L58.0439 51.7453L58.9617 53.5223ZM58.9404 48.9179L57.3429 49.7459L59.1836 53.2973L60.7811 52.4693L58.9404 48.9179ZM56.487 52.4408C56.6112 52.6807 56.7199 52.9515 56.8285 53.2728L60.6178 51.9916C60.4708 51.5569 60.288 51.0825 60.0395 50.6024L56.487 52.4408ZM57.8052 50.8553L49.0941 55.3553L50.93 58.9091L59.6411 54.4091L57.8052 50.8553ZM49.0938 55.3555L40.3836 59.8573L42.2202 63.4107L50.9303 58.9089L49.0938 55.3555ZM42.9154 60.4523C42.7188 60.1838 42.5605 59.9391 42.4373 59.7005L38.883 61.5353C39.1324 62.0185 39.4169 62.4452 39.6883 62.8157L42.9154 60.4523ZM39.7418 58.8412L38.1434 59.6674L39.9801 63.2208L41.5785 62.3946L39.7418 58.8412ZM37.2848 62.3619C39.548 66.7437 44.2015 69.0294 48.9694 68.8782L48.8426 64.8802C45.3809 64.99 42.2925 63.3409 40.8387 60.5263L37.2848 62.3619ZM48.9677 68.8782C51.0705 68.8132 53.217 68.2769 55.2327 67.2333L53.3936 63.6811C51.912 64.4483 50.3522 64.8335 48.8442 64.8801L48.9677 68.8782ZM55.2309 67.2342C58.4081 65.5933 60.8627 62.9171 62.1021 59.6663L58.3646 58.2413C57.4944 60.5237 55.746 62.4663 53.3954 63.6802L55.2309 67.2342ZM62.1026 59.6651C63.357 56.3685 63.2223 52.8391 61.6372 49.7747L58.0843 51.6125C59.1146 53.6043 59.2391 55.9429 58.3641 58.2425L62.1026 59.6651ZM50.3223 60.4179L55.4568 63.3618L57.4464 59.8918L52.3119 56.9479L50.3223 60.4179ZM54.9952 60.256C54.4045 60.8836 53.6969 61.4363 52.8912 61.8926L54.8622 65.3732C55.9986 64.7297 57.028 63.9324 57.9079 62.9976L54.9952 60.256ZM55.6532 62.7143L53.0936 57.7643L49.5405 59.6015L52.1001 64.5515L55.6532 62.7143ZM48.743 60.0144L51.3026 64.9662L54.8559 63.1294L52.2963 58.1776L48.743 60.0144ZM52.233 62.2357C51.3848 62.6318 50.524 62.8839 49.6808 62.9997L50.2246 66.9625C51.4801 66.7902 52.7271 66.4196 53.9256 65.8599L52.233 62.2357ZM51.9434 65.1729L52.5104 59.2878L48.5289 58.9042L47.9619 64.7893L51.9434 65.1729ZM42.8064 64.1206L49.6968 60.5575L47.8595 57.0045L40.9691 60.5676L42.8064 64.1206ZM47.147 57.6238L43.1897 63.202L46.4521 65.5164L50.4094 59.9382L47.147 57.6238ZM45.5826 62.5099C44.7146 62.1524 43.9597 61.6364 43.3536 60.9835L40.4219 63.7047C41.4449 64.8068 42.6897 65.6444 44.0591 66.2085L45.5826 62.5099ZM47.3331 65.8307L51.2382 60.3272L47.976 58.0124L44.0709 63.5159L47.3331 65.8307ZM47.6162 58.9784L47.0492 64.8761L51.0309 65.2589L51.5979 59.3612L47.6162 58.9784ZM48.9404 63.07C48.0079 63.1165 47.1075 63.0055 46.2738 62.7568L45.1301 66.5898C46.4079 66.9711 47.7629 67.1337 49.1397 67.065L48.9404 63.07ZM58.046 59.198L52.9007 56.2469L50.9106 59.7167L56.0559 62.6678L58.046 59.198ZM51.9057 59.9818H58.6575V55.9818H51.9057V59.9818ZM56.7601 57.3493C56.7445 57.3962 56.731 57.439 56.7207 57.4721C56.7156 57.4886 56.7106 57.505 56.7066 57.518C56.7023 57.5319 56.6989 57.5429 56.6957 57.5533C56.6818 57.5977 56.6801 57.6006 56.6843 57.5897L60.4129 59.038C60.4594 58.9183 60.4936 58.8105 60.5144 58.7438C60.5415 58.657 60.5445 58.6451 60.5548 58.6143L56.7601 57.3493ZM56.6786 57.6044C56.3978 58.3445 55.9939 59.0454 55.4823 59.6922L58.6196 62.1736C59.368 61.2274 59.9829 60.1715 60.4185 59.0234L56.6786 57.6044ZM58.914 55.0818H52.0695V59.0818H58.914V55.0818ZM52.9872 58.8588L59.8794 55.2993L58.0439 51.7453L51.1517 55.3048L52.9872 58.8588ZM57.0051 53.9369C57.1857 54.7891 57.1776 55.7014 56.9641 56.6367L60.8638 57.5269C61.1993 56.0574 61.2254 54.5577 60.9182 53.1077L57.0051 53.9369Z" fill="#5271FF" mask="url(#path-3-inside-1)"/>
<path d="M30.6496 30.3904C31.8745 31.3516 32.878 33.4135 32.8762 34.9723V87.1668C32.8762 88.7256 31.6009 90 30.043 90H3.15009C1.59219 90 0.316895 88.7256 0.316895 87.1668V34.9723C0.316895 33.4135 1.32129 31.3516 2.54709 30.3904L11.7772 23.1491H13.0519V22.1491L12.4346 21.3623L11.4904 22.1031L11.4334 22.1478C10.7515 22.118 10.207 21.5558 10.207 20.8666C10.207 20.307 10.5649 19.8316 11.0639 19.6558C11.1196 19.7861 11.1797 19.9139 11.2439 20.0392L11.4904 19.9129L12.1339 19.5832V18.5832H11.748C11.6379 18.1725 11.5786 17.7412 11.5786 17.2954C11.5786 16.0615 12.5713 13.4425 13.6747 10.9144M30.6496 30.3904L21.4186 23.1491H20.1439V22.1491L20.7611 21.3623L21.7054 22.103L21.7625 22.1478C22.4443 22.1179 22.9888 21.5557 22.9888 20.8666C22.9888 20.3073 22.6312 19.832 22.1327 19.656C22.077 19.7862 22.0169 19.914 21.9527 20.0392L21.7054 19.9125L21.0628 19.5832V18.5832H21.4483C21.5581 18.1725 21.6172 17.7412 21.6172 17.2954C21.6172 16.0615 20.6227 13.4425 19.5202 10.9144M30.6496 30.3904L30.0324 31.1772C30.493 31.5387 30.9653 32.1577 31.3235 32.8945C31.6818 33.6313 31.8769 34.3851 31.8762 34.9711V34.9723V87.1668C31.8762 88.1731 31.0488 89 30.043 89H3.15009C2.14427 89 1.31689 88.1731 1.31689 87.1668V34.9723C1.31689 34.3859 1.51262 33.6319 1.87142 32.8949C2.23022 32.158 2.703 31.5389 3.16415 31.1773L3.16434 31.1771L13.6691 22.9358L15.9466 21.1491H13.0519H11.4904C11.3335 21.1491 11.207 21.0217 11.207 20.8666C11.207 20.7101 11.3339 20.5832 11.4904 20.5832H12.1339H13.77L13.0238 19.1271C12.7405 18.5742 12.5786 17.954 12.5786 17.2954C12.5786 16.8642 12.7709 16.0449 13.1587 14.9148C13.4727 13.9999 13.8845 12.9647 14.3323 11.9144M30.6496 30.3904L30.0322 31.1771L19.5267 22.9359L17.2489 21.1491H20.1439H21.7054C21.8623 21.1491 21.9888 21.0217 21.9888 20.8666C21.9888 20.7101 21.8619 20.5832 21.7054 20.5832H21.0628H19.4267L20.1728 19.1271C20.4558 18.5748 20.6172 17.9547 20.6172 17.2954C20.6172 16.8644 20.4246 16.0454 20.0364 14.9151C19.7221 14.0001 19.3101 12.9649 18.8624 11.9144M19.5202 10.9144H13.6747M19.5202 10.9144V11.9144H18.8624M19.5202 10.9144L18.6036 11.3141C18.6908 11.5143 18.7773 11.7146 18.8624 11.9144M13.6747 10.9144V11.9144H14.3323M13.6747 10.9144L14.5912 11.3144C14.5039 11.5144 14.4174 11.7147 14.3323 11.9144M14.3323 11.9144H18.8624M8.31689 58.3596C8.31689 64.0666 9.14259 69.2763 10.5082 73.095C11.1894 75 12.0239 76.6124 13.0005 77.7676C13.9732 78.9183 15.1848 79.7221 16.5979 79.7221C18.0112 79.7221 19.2228 78.9183 20.1956 77.7676C21.1723 76.6124 22.0068 75 22.6879 73.095C24.0534 69.2763 24.8789 64.0665 24.8789 58.3596C24.8789 52.6527 24.0534 47.443 22.6879 43.6243C22.0068 41.7193 21.1723 40.1069 20.1956 38.9517C19.2228 37.801 18.0112 36.9972 16.5979 36.9972C15.1848 36.9972 13.9732 37.801 13.0005 38.9517C12.0239 40.1069 11.1894 41.7193 10.5082 43.6243C9.14259 47.443 8.31689 52.6527 8.31689 58.3596Z" fill="#5690FF" stroke="#5271FF" stroke-width="2"/>
</svg>
