<svg width="50" height="79" viewBox="0 0 50 79" fill="none" xmlns="http://www.w3.org/2000/svg">
<path d="M37.402 26.1528L37.1702 25.4775L34.1772 16.7572C34.177 16.7568 34.1769 16.7563 34.1767 16.7559C34.118 16.5888 33.9607 16.4793 33.7907 16.4793C33.6178 16.4793 33.4621 16.5899 33.4055 16.7537C33.4054 16.7539 33.4053 16.7541 33.4052 16.7544L30.4112 25.4775L30.1794 26.1528H29.4654H24.1692H23.6171L23.3229 25.6856C22.2263 23.9438 21.7682 22.2294 21.609 21.4722L21.5426 21.1563L21.6735 20.8612C23.5006 16.7403 22.6589 11.3906 21.9802 8.58934L21.7636 7.69522L22.6366 7.40495C22.819 7.34429 22.9201 7.19334 22.9201 7.03545V1.40719C22.9201 1.18136 22.7389 1.00012 22.5131 1.00012H11.2565C11.0307 1.00012 10.8495 1.18137 10.8495 1.40719V7.03545C10.8495 7.19055 10.9516 7.34565 11.1479 7.40475L12.0545 7.67758L11.8316 8.59767C11.153 11.4004 10.3126 16.7443 12.1396 20.8609L12.2703 21.1555L12.2045 21.471C11.9868 22.5133 11.3667 24.7576 9.76521 26.7598C8.13163 28.8021 5.50644 30.5485 1.42958 30.5485C1.20375 30.5485 1.02251 30.7298 1.02251 30.9556V30.9561L1 75.9817C1 75.9819 1 75.982 1 75.9822C1.00029 76.9063 1.79021 77.7958 3.34178 77.7958H30.4278C31.9797 77.7958 32.7696 76.906 32.7696 75.9817V72.0096V71.9156L32.7871 71.8232C32.7898 71.8089 32.7921 71.7901 32.7921 71.7605V37.9403V36.4255L28.376 39.4635L25.8808 41.18L26.8633 38.3152L28.7995 32.67L28.7996 32.6695C28.8586 32.4979 28.7962 32.3075 28.6447 32.2035L28.644 32.2031L23.6827 28.7909L21.0307 26.967H24.2494H30.47C30.644 26.967 30.7988 26.8566 30.8555 26.6919L32.8448 20.8941L33.7907 18.1375L34.7366 20.8941L36.7249 26.689C36.725 26.6894 36.7252 26.6898 36.7253 26.6901C36.7839 26.8574 36.9413 26.967 37.1114 26.967H43.332H46.5507L43.8987 28.7909L38.9382 32.2025C38.9379 32.2027 38.9377 32.2028 38.9374 32.203C38.7855 32.3082 38.7236 32.4995 38.7822 32.6708L40.7181 38.3152L41.7006 41.18L39.2054 39.4635L34.0203 35.8965L34.0202 35.8964C33.9512 35.8489 33.871 35.825 33.7907 35.825C33.7104 35.825 33.6302 35.8489 33.5612 35.8964L33.5611 35.8965L33.0734 36.232L34.3589 37.1164L42.2533 42.5476C42.2535 42.5478 42.2537 42.5479 42.2539 42.5481C42.3266 42.5976 42.4064 42.6206 42.485 42.6206C42.5723 42.6206 42.6584 42.5928 42.7304 42.5383L37.402 26.1528ZM37.402 26.1528H38.116M37.402 26.1528H38.116M38.116 26.1528H47.8614C48.0396 26.1528 48.197 26.2687 48.25 26.4383L38.116 26.1528ZM39.6536 32.699L40.2792 32.2689L48.0903 26.8983C48.0905 26.8982 48.0907 26.898 48.0909 26.8979C48.239 26.7951 48.3027 26.6092 48.2502 26.439L39.6536 32.699ZM39.6536 32.699L39.8998 33.4172M39.6536 32.699L39.8998 33.4172M39.8998 33.4172L42.8695 42.0801C42.8695 42.0802 42.8695 42.0802 42.8695 42.0803M39.8998 33.4172L42.8695 42.0803M42.8695 42.0803C42.9266 42.2482 42.8698 42.4324 42.7305 42.5382L42.8695 42.0803ZM12.6782 20.0583L12.9243 20.7005H13.612H20.1998H20.8871L21.1334 20.0589C21.9662 17.8899 22.0669 15.4364 21.9094 13.3108C21.751 11.1721 21.3244 9.28034 21.0358 8.18839L20.839 7.44393H20.069H13.7456H12.9753L12.7787 8.18871C12.49 9.28248 12.0646 11.1768 11.9064 13.3162C11.7492 15.4422 11.849 17.8949 12.6782 20.0583ZM12.6622 1.81566H11.6622V2.81566V5.6298V6.6298H12.6622H21.1046H22.1046V5.6298V2.81566V1.81566H21.1046H12.6622ZM31.2639 61.4632L31.9766 61.2494V60.5054V39.8764V37.9746L30.4098 39.0525L25.3278 42.5488C25.3278 42.5489 25.3277 42.5489 25.3276 42.549C25.183 42.6483 24.9919 42.6446 24.8504 42.5378C24.7099 42.4308 24.6547 42.2469 24.7112 42.0822L24.7113 42.0819L25.3234 40.2963L25.9546 38.4549L24.0901 39.0142L10.8706 42.9801V40.102C12.9225 39.5568 14.3099 38.3252 15.1866 36.9244C16.1582 35.3718 16.4988 33.6248 16.4988 32.3641C16.4988 31.0337 15.4222 29.957 14.0918 29.957C13.1198 29.957 12.2874 30.5307 11.9069 31.3556H11.6966L11.6848 32.3437C11.6813 32.6351 11.6246 33.4879 11.1938 34.2365C10.8093 34.9045 10.0816 35.5853 8.4635 35.5853C7.13311 35.5853 6.05644 36.6619 6.05644 37.9923V44.4243L2.54789 45.4769L1.83524 45.6907V46.4347V68.9478V70.2918L3.12259 69.9056L6.05644 69.0255V73.169V74.169H7.05644H9.87057H10.8735L10.8706 73.1661L10.8544 67.5862L31.2639 61.4632Z" fill="#5690FF" stroke="#5271FF" stroke-width="2"/>
<path d="M10.8481 53.4699C10.8481 51.115 13.3366 48.8417 16.8835 48.8417C20.4303 48.8417 22.9188 51.115 22.9188 53.4699C22.9188 55.8249 20.4303 58.0982 16.8835 58.0982C13.3366 58.0982 10.8481 55.8249 10.8481 53.4699Z" fill="#5690FF" stroke="#5271FF" stroke-width="2"/>
</svg>
