<svg width="50" height="71" viewBox="0 0 50 71" fill="none" xmlns="http://www.w3.org/2000/svg">
<path d="M16.4727 13.9733L16.9448 13.6798L20.9565 11.1861L20.9632 11.1819L20.9699 11.1778C20.9829 11.17 20.9892 11.1642 20.9917 11.1616L16.4727 13.9733ZM16.4727 13.9733V14.5291M16.4727 13.9733V14.5291M16.4727 14.5291V17.4324H16.3042V13.8786C16.3042 13.8607 16.3058 13.846 16.3079 13.8344M16.4727 14.5291L16.3079 13.8344M16.3079 13.8344L20.8104 11.0471C20.8866 11.0027 20.9318 11.0092 20.9359 11.0101L16.3079 13.8344ZM20.9348 11.0091C20.934 11.0085 20.9344 11.0087 20.9359 11.0101C20.9368 11.0102 20.9371 11.0103 20.9371 11.0103C20.937 11.0103 20.936 11.0099 20.9348 11.0091Z" fill="#5690FF" stroke="#5271FF" stroke-width="2"/>
<path d="M32.8689 1.00012H40.6755C41.3159 1.00012 41.844 1.52823 41.844 2.16861V6.91588C41.837 6.93044 41.8222 6.9535 41.7981 6.97761C41.774 7.00172 41.7509 7.01651 41.7363 7.02354H31.7847C31.7634 7.02354 31.7539 7.01964 31.7502 7.01801C31.7453 7.01578 31.7381 7.0114 31.7297 7.0024C31.7207 6.99284 31.7125 6.98011 31.7068 6.96603C31.7012 6.95188 31.7004 6.94211 31.7004 6.9393V2.16861C31.7004 1.52823 32.2285 1.00012 32.8689 1.00012Z" fill="#5690FF" stroke="#5271FF" stroke-width="2"/>
<path d="M46.8315 51.285V51.5283L46.9433 51.7444L48.5526 54.8557C48.836 55.5241 49 56.1365 49 56.8146V67.2234C49 68.4928 47.9516 69.4761 46.7473 69.4761H26.9056C25.6362 69.4761 24.6528 68.4277 24.6528 67.2234V56.8146C24.6528 56.0405 24.8363 55.4625 25.2007 54.7215C25.3589 54.3999 25.5429 54.0636 25.7616 53.6641C25.8072 53.5807 25.8543 53.4947 25.903 53.4054C26.1804 52.8969 26.4949 52.31 26.8313 51.6093L26.9297 51.4041V51.1765V34.2623V34.0014L26.8023 33.7737L25.2909 31.0748C24.8585 30.2493 24.7613 29.6179 24.7613 28.448C24.7613 28.1125 24.7699 27.7284 24.7798 27.2861C24.805 26.1647 24.8386 24.669 24.7613 22.6423C24.7679 19.9671 26.2027 17.397 28.5671 16.0632L28.7623 15.9656L28.7727 15.9604L28.783 15.9549C30.6816 14.9498 32.0408 13.0918 32.6649 11.0836H41.0544C41.6096 13.1955 43.0039 14.9667 44.9605 16.0537L44.9795 16.0643L44.999 16.074L45.1942 16.1716C47.564 17.5085 49 20.0874 49 22.7693V29.0579C49 29.9434 48.7875 30.5717 48.4341 31.2549C48.2717 31.5689 48.0857 31.8831 47.8677 32.2515C47.8348 32.3071 47.8011 32.3639 47.7667 32.4222C47.5099 32.8571 47.2243 33.3491 46.9371 33.9235L46.8315 34.1347V34.3707V51.285ZM44.5177 67.1373L44.5482 67.1391H44.5788C46.3237 67.1391 47.7473 65.7156 47.7473 63.9706V58.8747C47.7473 57.8464 46.9297 56.7904 45.663 56.7904C45.0667 56.7904 44.5541 57.0785 44.2105 57.4222C43.8669 57.7658 43.5788 58.2784 43.5788 58.8747V63.0171C42.211 63.0634 41.0744 63.0206 40.0926 62.9836C39.5371 62.9626 39.0313 62.9435 38.5612 62.9435C37.8903 62.9435 37.1708 62.9809 36.5971 63.2456C36.2798 63.3921 35.9838 63.6171 35.7687 63.9512C35.5578 64.2789 35.4695 64.6421 35.4487 64.9962L35.4469 65.0255V65.0549C35.4469 65.4103 35.515 65.7848 35.7185 66.1276C35.9267 66.4786 36.2268 66.7121 36.5463 66.8618C37.1187 67.1298 37.847 67.1662 38.5206 67.1662C38.995 67.1662 39.5068 67.1471 40.0685 67.1262C41.2788 67.081 42.7204 67.0272 44.5177 67.1373ZM28.5049 20.5873L28.4907 20.6157L28.4784 20.6449C27.2012 23.6636 27.5241 26.5578 27.7401 28.493C27.7451 28.5379 27.75 28.5823 27.7549 28.6262L27.7597 28.6694L27.7682 28.7119C27.977 29.7561 28.8504 30.3832 29.833 30.3832H29.8337H29.8343H29.8349H29.8356H29.8362H29.8368H29.8375H29.8381H29.8387H29.8394H29.84H29.8407H29.8413H29.8419H29.8426H29.8432H29.8438H29.8445H29.8451H29.8457H29.8464H29.847H29.8476H29.8483H29.8489H29.8495H29.8502H29.8508H29.8514H29.8521H29.8527H29.8533H29.854H29.8546H29.8552H29.8559H29.8565H29.8571H29.8578H29.8584H29.859H29.8597H29.8603H29.8609H29.8615H29.8622H29.8628H29.8634H29.8641H29.8647H29.8653H29.866H29.8666H29.8672H29.8678H29.8685H29.8691H29.8697H29.8703H29.871H29.8716H29.8722H29.8729H29.8735H29.8741H29.8747H29.8754H29.876H29.8766H29.8772H29.8778H29.8785H29.8791H29.8797H29.8803H29.881H29.8816H29.8822H29.8828H29.8834H29.8841H29.8847H29.8853H29.8859H29.8865H29.8872H29.8878H29.8884H29.889H29.8896H29.8902H29.8909H29.8915H29.8921H29.8927H29.8933H29.8939H29.8945H29.8951H29.8958H29.8964H29.897H29.8976H29.8982H29.8988H29.8994H29.9H29.9006H29.9012H29.9018H29.9024H29.9031H29.9037H29.9043H29.9049H29.9055H29.9061H29.9067H29.9073H29.9079H29.9085H29.9091H29.9097H29.9103H29.9109H29.9115H29.9121H29.9127H29.9133H29.9138H29.9144H29.915H29.9156H29.9162H29.9168H29.9174H29.918H29.9186H29.9192H29.9198H29.9203H29.9209H29.9215H29.9221H29.9227H29.9233H29.9239H29.9244H29.925H29.9256H29.9262H29.9268H29.9273H29.9279H29.9285H29.9291H29.9296H29.9302H29.9308H29.9314H29.9319H29.9325H29.9331H29.9337H29.9342H29.9348H29.9354H29.9359H29.9365H29.9371H29.9376H29.9382H29.9388H29.9393H29.9399H29.9404H29.941H29.9416H29.9421H29.9427H29.9432H29.9438H29.9443H29.9449H29.9454H29.946H29.9466H29.9471H29.9476H29.9482H29.9487H29.9493H29.9498H29.9504H29.9509H29.9515H29.952H29.9526H29.9531H29.9536H29.9542H29.9547H29.9552H29.9558H29.9563H29.9568H29.9574H29.9579H29.9584H29.959H29.9595H29.96H29.9605H29.9611H29.9616H29.9621H29.9626H29.9632H29.9637H29.9642H29.9647H29.9652H29.9657H29.9663H29.9668H29.9673H29.9678H29.9683H29.9688H29.9693H29.9698H29.9703H29.9708H29.9713H29.9718H29.9723H29.9728H29.9733H29.9738H29.9743H29.9748H29.9753H29.9758H29.9763H29.9768H29.9773H29.9778H29.9783H29.9788H29.9792H29.9797H29.9802H29.9807H29.9812H29.9816H29.9821H29.9826H29.9831H29.9835H29.984H29.9845H29.985H29.9854H29.9859H29.9864H29.9868H29.9873H29.9877H29.9882H29.9887H29.9891H29.9896H29.99H29.9905H29.9909H29.9914H29.9918H29.9923H29.9927H29.9932H29.9936H29.9941H29.9945H29.995H29.9954H29.9958H29.9963H29.9967H29.9971H29.9976H29.998H29.9984H29.9989H29.9993H29.9997H30.0001H30.0006H30.001H30.0014H30.0018H30.0022H30.0026H30.0031H30.0035H30.0039H30.0043H30.0047H30.0051H30.0055H30.0059H30.0063H30.0067H30.0071H30.0075H30.0079H30.0083H30.0087H30.0091H30.0095H30.0099H30.0102H30.0106H30.011H30.0114H30.0118H30.0122H30.0125H30.0129H30.0133H30.0137H30.014H30.0144H30.0148H30.0151H30.0155H30.0159H30.0162H30.0166H30.0169H30.0173H30.0176H30.018H30.0183H30.0187H30.019H30.0194H30.0197H30.0201H30.0204H30.0208H30.0211H30.0214H30.0218H30.0221H30.0224H30.0228H30.0231H30.0234H30.0237H30.0241H30.0244H30.0247H30.025H30.0253H30.0256H30.0259H30.0263H30.0266H30.0269H30.0272H30.0275H30.0278H30.0281H30.0284H30.0287H30.029H30.0293H30.0295H30.0298H30.0301H30.0304H30.0307H30.031H30.0312H30.0315H30.0318H30.0321H30.0323H30.0326H30.0329H30.0331H30.0334H30.0337H30.0339H30.0342H30.0344H30.0347H30.035H30.0352H30.0355H30.0357H30.0359H30.0362H30.0364H30.0367H30.0369H30.0371H30.0374H30.0376H30.0378H30.0381H30.0383H30.0385H30.0387H30.0389H30.0392H30.0394H30.0396H30.0398H30.04H30.0402H30.0404H30.0406H30.0408H30.041H30.0412H30.0414H30.0416H30.0418H30.042H30.0422H30.0424H30.0425H30.0427H30.0429H30.0431H30.0432H30.0434H30.0436H30.0438H30.0439H30.0441H30.0442H30.0444H30.0446H30.0447H30.0449H30.045H30.0452H30.0453H30.0454H30.0456H30.0457H30.0459H30.046H30.0461H30.0463H30.0464H30.0465H30.0466H30.0468H30.0469H30.047H30.0471H30.0472H30.0473H30.0474H30.0475H30.0477H30.0478H30.0479H30.0479H30.048H30.0481H30.0482H30.0483H30.0484H30.0485H30.0486H30.0486H30.0487H30.0488H30.0489H30.0489H30.049H30.0491H30.0491H30.0492H30.0492H30.0493H30.0493H30.0494H30.0494H30.0495H30.0495H30.0496H30.0496H30.0496H30.0497H30.0497H30.0497H30.0498H30.0498H30.0498H30.0498H30.0498H30.0499H30.0499C30.7366 30.3832 31.2538 29.9787 31.5445 29.5668C31.8332 29.1579 32.0112 28.5927 31.9016 28.0134C31.49 25.5354 31.6148 23.8093 32.2567 22.3266C32.5182 21.8111 32.8727 21.3607 33.3592 20.8742C34.0441 20.1893 34.4179 18.8923 33.4676 17.9421C32.789 17.2634 31.5095 16.8903 30.5618 17.8077C29.5726 18.68 28.966 19.6651 28.5049 20.5873Z" fill="#5690FF" stroke="#5271FF" stroke-width="2"/>
<path d="M20.4843 27.9496H1.34155V21.6001C1.34858 21.5855 1.36338 21.5625 1.38749 21.5384C1.41159 21.5143 1.43466 21.4995 1.44922 21.4924H20.5612C20.516 21.9084 20.4843 22.3373 20.4843 22.7693V27.9496Z" fill="#5690FF" stroke="#5271FF" stroke-width="2"/>
<path d="M11.3031 41.0974L12.1233 39.2605L13.9602 40.0807L13.14 41.9176L11.3031 41.0974Z" fill="#5690FF" stroke="#5271FF" stroke-width="2"/>
<path d="M15.7979 56.4293L14.9778 58.2662L13.1409 57.4461L13.961 55.6092L15.7979 56.4293Z" fill="#5690FF" stroke="#5271FF" stroke-width="2"/>
<path d="M10.6419 59.8504L10.2335 60.7633C11.3708 61.272 12.2285 61.6652 12.8759 61.962C13.3788 62.1925 13.7547 62.3648 14.0359 62.4878C14.718 62.7862 15.0908 62.9105 15.6294 62.9105C16.3392 62.9105 16.9435 62.6932 17.4395 62.2617C17.8982 61.8626 18.2035 61.331 18.4449 60.819C18.6232 60.4408 18.7989 59.9987 18.9778 59.5485C19.0393 59.3938 19.1012 59.2381 19.1636 59.0838C19.4172 58.4574 19.7067 57.7833 20.0889 57.0699L20.1063 57.0375L20.1212 57.0038C20.7957 55.4863 20.0772 53.8769 18.7173 53.1213L18.6752 53.098L18.6312 53.0788L14.4026 51.2356L14.3617 51.2177L14.3193 51.2036C12.9008 50.7308 11.2847 51.3412 10.6149 52.6809L10.6031 52.7044L10.5926 52.7285L8.74937 56.9571L8.73151 56.998L8.71738 57.0404C8.26858 58.3869 8.68378 60.0745 10.2357 60.7642L10.6419 59.8504ZM10.6419 59.8504C9.66607 59.4167 9.34079 58.3325 9.66607 57.3567L11.5093 53.1281C11.943 52.2607 13.0272 51.827 14.003 52.1523L18.2316 53.9955C19.2074 54.5376 19.6411 55.6219 19.2074 56.5977C18.6922 57.5595 18.3402 58.4451 18.0376 59.2063C17.3852 60.8478 16.9628 61.9105 15.6294 61.9105C15.1626 61.9105 14.9191 61.7988 13.2963 61.0546C12.6577 60.7618 11.8054 60.371 10.6419 59.8504ZM20.3769 56.6627L20.3759 56.6844V56.7061V67.1149C20.3759 67.7042 20.4724 68.2838 20.631 68.8255H5.65436C3.27918 68.8255 1.34155 66.8879 1.34155 64.5127V32.1179H21.0848C21.322 32.7375 21.6262 33.2879 22.0422 34.0405C22.2233 34.3683 22.4256 34.7343 22.6528 35.1611V50.5143C22.451 50.9258 22.2393 51.3161 22.0223 51.715L22.0037 51.7491C21.7616 52.194 21.5101 52.6562 21.2843 53.136C20.8114 54.1408 20.4384 55.248 20.3769 56.6627ZM8.88006 36.3088L8.8683 36.3323L8.85779 36.3564L7.02375 40.5639C6.36376 41.9239 6.9983 43.7471 8.53242 44.2983L12.7166 46.2295L12.7267 46.2342L12.7369 46.2386C13.5762 46.6035 14.4034 46.6296 15.1457 46.225C15.8172 45.859 16.2639 45.2191 16.5895 44.6198C16.9138 44.0227 17.1948 43.3148 17.4601 42.6467L17.4804 42.5954C17.7613 41.8881 18.0348 41.2037 18.3599 40.5785L18.3963 40.5084L18.4213 40.4334C18.8701 39.087 18.4549 37.3993 16.903 36.7096L16.903 36.7096L16.8964 36.7067L12.6678 34.8635L12.6269 34.8456L12.5845 34.8315C11.166 34.3587 9.54993 34.969 8.88006 36.3088Z" fill="#5690FF" stroke="#5271FF" stroke-width="2"/>
</svg>
