<svg width="33" height="72" viewBox="0 0 33 72" fill="none" xmlns="http://www.w3.org/2000/svg">
<path d="M15.0242 37.6236L1 49.6446V34H32V49.6446L17.9758 37.6236L17.975 37.6229C17.564 37.2713 17.0409 37.0781 16.5 37.0781C15.9591 37.0781 15.436 37.2713 15.025 37.6229L15.0242 37.6236ZM24.9461 27.3671L24.9461 27.3671L24.954 27.3639L25.0162 27.3385L25.0289 27.3334L25.0414 27.3278C27.5892 26.2056 29.6998 24.3313 29.6998 21.5769C29.6998 20.6204 30.1524 19.8661 30.8639 19.2405C31.2058 18.9399 31.5956 18.681 31.9962 18.4605V29.4615H1V18.4638C1.401 18.6847 1.79087 18.9435 2.13279 19.2438C2.84424 19.8685 3.29635 20.6208 3.29635 21.5769C3.29635 24.338 5.41834 26.2065 7.95353 27.3273L7.96668 27.3331L7.97999 27.3385L8.04218 27.3639L8.04217 27.364L8.05007 27.3671C10.7368 28.4372 13.6085 28.966 16.5001 28.9232C19.3904 28.9655 22.2606 28.4367 24.9461 27.3671ZM18.7692 17.5H21.8462V23.6564C20.8403 23.9496 19.8106 24.153 18.7692 24.2644V17.5ZM11.1538 1H14.2308V9.15385H11.1538V1ZM11.1538 13.6923H14.2308V24.2644C13.1894 24.153 12.1597 23.9496 11.1538 23.6564V13.6923ZM3.53846 11.1538H6.61538V17.5541C6.42189 17.2463 6.20819 16.9506 5.97532 16.6689C5.29621 15.8474 4.46892 15.1636 3.53846 14.6518V11.1538ZM1 70.0769V55.6207L16.5 42.3348L32 55.6207V70.0769H1ZM26.3846 11.1538H29.4615V14.6518C28.5311 15.1636 27.7038 15.8474 27.0247 16.6689C26.7918 16.9506 26.5781 17.2463 26.3846 17.5541V11.1538ZM21.8462 4.80769V12.9615H18.7692V4.80769H21.8462Z" fill="#5690FF" stroke="#5271FF" stroke-width="2"/>
</svg>
