<svg width="55" height="69" viewBox="0 0 55 69" fill="none" xmlns="http://www.w3.org/2000/svg">
<path d="M4.46447 61.8593V61.7352L4.4341 61.6148C2.81234 55.1849 1.88673 48.4523 1.49125 43.6776C5.66954 41.699 13.73 39.6076 23.6608 45.7559C33.9124 52.106 44.6829 51.5877 53.0643 48.9499C52.6186 52.399 51.855 57.0578 50.6121 61.5951L50.5766 61.7249V61.8593V67.7326H4.46447V61.8593ZM8.61942 66.296H9.61942V65.296V61.8593V60.8593H8.61942H6.9011H5.9011V61.8593V65.296V66.296H6.9011H8.61942ZM15.4927 66.296H16.4927V65.296V61.8593V60.8593H15.4927H12.056H11.056V61.8593V65.296V66.296H12.056H15.4927ZM25.8026 66.296H26.8026V65.296V61.8593V60.8593H25.8026H18.9293H17.9293V61.8593V65.296V66.296H18.9293H25.8026ZM36.1118 66.296H37.1118V65.296V61.8593V60.8593H36.1118H29.2385H28.2385V61.8593V65.296V66.296H29.2385H36.1118ZM46.4217 60.8593H45.4217V61.8593V65.296V66.296H46.4217H48.14H49.14V65.296V61.8593V60.8593H48.14H46.4217ZM42.985 66.296H43.985V65.296V61.8593V60.8593H42.985H39.5484H38.5484V61.8593V65.296V66.296H39.5484H42.985ZM50.5766 6.87326V7.01172L50.6142 7.14478L50.6142 7.14497L50.6147 7.14654L50.6168 7.15425L50.6261 7.1879C50.6345 7.21838 50.6472 7.26491 50.6639 7.32704C50.6973 7.45131 50.7465 7.63801 50.8089 7.88374C50.9336 8.37521 51.1108 9.10269 51.3186 10.039C51.7342 11.9118 52.2719 14.6187 52.7565 17.9423C53.7067 24.4583 54.4502 33.3256 53.6799 42.9163C48.4255 45.1001 37.8514 47.8937 27.2097 41.3077C16.4728 34.6561 7.10358 35.764 1.12222 37.8928C0.694525 30.6429 1.45661 23.1897 2.36223 17.4167C2.84216 14.3572 3.36067 11.7804 3.75877 9.97006C3.95778 9.06509 4.12658 8.35221 4.24527 7.86696C4.30461 7.62435 4.35141 7.43868 4.38318 7.31441C4.39906 7.25227 4.41119 7.20549 4.41924 7.17461L4.42823 7.14029L4.43036 7.13221L4.43083 7.13047L4.43088 7.13026L4.43091 7.13017L4.46447 7.00395V6.87326V1H50.5766V6.87326ZM8.61942 7.87326H9.61942V6.87326V3.43663V2.43663H8.61942H6.9011H5.9011V3.43663V6.87326V7.87326H6.9011H8.61942ZM29.2385 2.43663H28.2385V3.43663V6.87326V7.87326H29.2385H36.1118H37.1118V6.87326V3.43663V2.43663H36.1118H29.2385ZM18.9293 2.43663H17.9293V3.43663V6.87326V7.87326H18.9293H25.8026H26.8026V6.87326V3.43663V2.43663H25.8026H18.9293ZM12.056 2.43663H11.056V3.43663V6.87326V7.87326H12.056H15.4927H16.4927V6.87326V3.43663V2.43663H15.4927H12.056ZM42.2674 24.0566V24.0564C42.2674 22.937 41.7622 21.8813 40.9893 20.9681C40.2137 20.0516 39.123 19.221 37.8167 18.5218C35.2019 17.1224 31.5999 16.1831 27.5209 16.1831C23.4419 16.1831 19.8398 17.1224 17.2251 18.5218C15.9187 19.221 14.828 20.0516 14.0524 20.9681C13.2796 21.8813 12.7744 22.937 12.7744 24.0564C12.7744 25.1759 13.2796 26.2318 14.0524 27.145C14.828 28.0615 15.9187 28.8922 17.2251 29.5913C19.8399 30.9906 23.4419 31.9297 27.5209 31.9297C31.5999 31.9297 35.2017 30.9906 37.8164 29.5913C39.1227 28.8922 40.2134 28.0615 40.989 27.145C41.7619 26.2318 42.2672 25.176 42.2674 24.0566ZM42.985 7.87326H43.985V6.87326V3.43663V2.43663H42.985H39.5484H38.5484V3.43663V6.87326V7.87326H39.5484H42.985ZM48.14 7.87326H49.14V6.87326V3.43663V2.43663H48.14H46.4217H45.4217V3.43663V6.87326V7.87326H46.4217H48.14Z" fill="#5690FF" stroke="#5271FF" stroke-width="2"/>
</svg>
