<svg width="62" height="87" viewBox="0 0 62 87" fill="none" xmlns="http://www.w3.org/2000/svg">
<path d="M34.9894 84.0834C35.9864 84.0059 35.9864 84.0058 35.9864 84.0056L35.9863 84.0047L35.9861 84.0012L35.985 83.9874L35.9807 83.9325L35.9641 83.7186L35.9009 82.9068L35.6756 80.0088L34.9917 71.2119C34.743 68.012 34.4944 64.8109 34.3079 62.407C34.2146 61.2051 34.1369 60.2025 34.0825 59.4992L34.0194 58.6813L34.0028 58.4648L34.0007 58.4364C34.0142 58.1842 34.2169 58.0009 34.4458 58H60.5542C60.7781 58.0009 60.977 58.1763 60.9981 58.42L59.0136 84.0061L59.0106 84.0447V84.0834V85.5387C59.0106 85.8032 58.8032 86 58.5618 86H36.4382C36.1982 86 35.9894 85.8021 35.9894 85.5387V84.0834V84.0446L35.9864 84.0059L34.9894 84.0834ZM33.9973 58.389C33.9973 58.3893 33.9976 58.3927 33.9979 58.3982C33.9974 58.3914 33.9972 58.3887 33.9973 58.389ZM57.3588 72.9143L57.3596 72.9124C57.9169 71.6145 57.3359 70.0939 56.0334 69.5191L56.0327 69.5188L50.4119 67.0436L50.411 67.0432C49.1007 66.4677 47.5906 67.0803 47.0308 68.3828C47.0307 68.3831 47.0305 68.3835 47.0303 68.3839L44.5262 74.1835L44.5262 74.1835L44.5239 74.189C43.9733 75.4854 44.5496 77.003 45.8476 77.5781L45.8498 77.579L51.4733 80.0543L51.4746 80.0549C52.7773 80.626 54.2936 80.0249 54.8544 78.7144C54.8548 78.7136 54.8551 78.7128 54.8555 78.712L57.3588 72.9143ZM58.5705 69.0113H59.4665L59.5645 68.1206L60.4544 60.0294L60.5764 58.9201H59.4604H35.6609H34.5471L34.6667 60.0274L37.1214 82.7601L37.2178 83.6527H38.1157H39.4639H40.4639V82.6527V69.0113H46.0066H46.6553L46.9198 68.4189L47.1156 67.9803L47.1197 67.971L47.1237 67.9616C47.5353 66.9869 48.5971 66.3419 49.6036 66.676L54.7395 68.9272L54.9315 69.0113H55.141H58.5705Z" fill="#5690FF" stroke="#5271FF" stroke-width="2"/>
<path d="M12.2664 26.3633V26.3741C12.2664 27.3817 11.459 28.2417 10.4176 28.2417C9.37851 28.2417 8.59262 27.3901 8.57592 26.4061C8.53278 25.6021 8.51042 24.7535 8.51042 23.9244C8.51042 18.7271 9.32228 13.9769 10.664 10.4529L10.6669 10.4452L10.667 10.4452C10.8321 10.0219 11.2493 9.65118 11.8209 9.65118C12.5406 9.65118 13.0595 10.2475 13.0595 10.9011V10.9672L13.0508 11.0328C12.8489 12.5521 12.6775 14.1609 12.5463 15.8315C14.5756 15.8255 15.6845 15.8265 17.4271 15.8386H17.4272H17.4272H17.4272H17.4272H17.4272H17.4272H17.4273H17.4273H17.4273H17.4273H17.4273H17.4273H17.4274H17.4274H17.4274H17.4274H17.4274H17.4275H17.4275H17.4275H17.4275H17.4275H17.4275H17.4276H17.4276H17.4276H17.4276H17.4276H17.4276H17.4277H17.4277H17.4277H17.4277H17.4277H17.4277H17.4278H17.4278H17.4278H17.4278H17.4278H17.4278H17.4278H17.4279H17.4279H17.4279H17.4279M12.2664 26.3633L17.4236 16.8386L17.4279 16.2211L17.4306 15.8386C17.4297 15.8386 17.4288 15.8386 17.4279 15.8386M12.2664 26.3633L12.2662 26.3525C12.2491 25.5626 12.2381 24.7279 12.2381 23.9244C12.2381 23.4877 12.2432 23.0599 12.2485 22.6267C12.2487 22.606 12.249 22.5854 12.2492 22.5647C14.4249 22.5821 15.9455 22.575 17.8079 22.539C18.6161 22.5364 19.2553 21.8909 19.2843 21.1014L19.2892 21.0615L19.285 20.9762C19.2189 19.6292 19.0849 18.3249 18.8875 17.0875L18.8852 17.0734L18.8825 17.0594C18.7607 16.4147 18.1999 15.8386 17.4279 15.8386M12.2664 26.3633L17.4279 15.8386M23.2675 32.947L23.2675 32.9471L23.2794 32.9537C25.426 34.15 26.9961 36.7592 27 39.8856L25.6675 85.821L25.6671 85.8348L25.6671 85.8486C25.667 85.9229 25.6447 85.9736 25.6269 86H2.37246C2.35457 85.9736 2.33212 85.9227 2.33202 85.8486L2.33201 85.8348L2.3316 85.821L1.00001 39.8858C1.00472 36.7588 2.57424 34.1492 4.72111 32.9539L4.76495 32.9295L4.80613 32.9009L5.7455 32.2467C7.16219 31.3351 8.14848 29.5906 8.14848 27.6587C8.14848 27.6444 8.14854 27.6281 8.1486 27.61C8.14905 27.4833 8.14981 27.2719 8.1329 27.0891C8.03945 25.851 8.03946 24.6556 8.03948 23.1284V23.0718C8.03948 17.3831 9.08344 12.4076 10.6354 9.32425L10.6503 9.29469L10.6632 9.26421C10.8427 8.83981 10.9378 8.37183 10.9378 7.88653C10.9378 7.18243 10.737 6.51534 10.3741 5.96776L10.3817 1.21321V1.21162C10.3817 1.10589 10.4186 1.03602 10.445 1.00514C10.4467 1.00319 10.4482 1.00149 10.4496 1H17.5516C17.553 1.00155 17.5546 1.00332 17.5563 1.00535C17.5833 1.03683 17.62 1.10684 17.62 1.21162V1.21286L17.6259 5.9672C17.2665 6.51136 17.0613 7.17675 17.0613 7.88565C17.0613 8.37765 17.1625 8.84263 17.334 9.25655L17.3481 9.29053L17.3646 9.32337C18.9165 12.4066 19.9597 17.3821 19.9597 23.0709C19.9597 23.136 19.9597 23.2003 19.9597 23.2642C19.9599 24.7327 19.96 25.8922 19.8641 27.0935C19.8633 27.1034 19.8625 27.1136 19.8617 27.1239C19.8507 27.2589 19.8369 27.4292 19.8369 27.6156C19.8369 29.6222 20.8025 31.4403 22.312 32.3963L22.3299 32.4076L22.3483 32.4182L23.2675 32.947ZM6.41823 38.6394C6.42079 37.158 6.83788 35.7789 7.54741 34.6108L6.13217 33.2636C3.57587 34.994 1.88892 37.9542 1.88892 41.3183V41.3311L1.88924 41.3439L2.9964 84.5135L3.02188 85.5067L4.01517 85.4877L6.73329 85.4358L7.7422 85.4165L7.7138 84.4078L7.27757 68.9159H13.5278H14.5278H14.5295V67.9159H15.5278V48.0909V47.0909H14.5278H6.65726L6.41823 38.6394Z" fill="#5690FF" stroke="#5271FF" stroke-width="2"/>
</svg>
