<svg width="75" height="90" viewBox="0 0 75 90" fill="none" xmlns="http://www.w3.org/2000/svg">
<path d="M73.2503 61.7542C73.2506 61.7564 73.2508 61.7601 73.2505 61.7652C73.2505 61.7655 73.2504 61.7658 73.2504 61.7661L71.9006 79.9879L71.9004 79.9919C71.9002 79.9941 71.8999 79.9953 71.8998 79.9957L71.8996 79.9963C71.8995 79.9965 71.8992 79.9971 71.8984 79.9979C71.8976 79.9986 71.8968 79.999 71.8963 79.9992C71.8963 79.9992 71.8947 80 71.8899 80H58.3877C58.3851 80 58.3842 79.9996 58.3837 79.9994L58.3837 79.9994C58.3826 79.999 58.3808 79.998 58.3789 79.9963C58.377 79.9945 58.376 79.9929 58.3756 79.992C58.3754 79.9917 58.3749 79.9908 58.3747 79.9877C58.3747 79.9877 58.3747 79.9877 58.3747 79.9876L57.026 61.7661C57.026 61.7658 57.026 61.7656 57.026 61.7654C57.0257 61.761 57.026 61.7581 57.0262 61.7565L57.0304 61.7519C57.0308 61.7516 57.0334 61.75 57.0388 61.75H73.241C73.2431 61.75 73.2443 61.7502 73.2447 61.7503L73.2456 61.7506L73.2472 61.7515C73.2479 61.752 73.2489 61.7528 73.2503 61.7542ZM72.0521 75.3178L72.243 75.0755L72.2643 74.7678L73.0878 62.8439L73.1616 61.775H72.0902H58.1953H57.1245L57.1976 62.8433L58.0132 74.7649L58.0343 75.0727L58.2252 75.3152C58.7521 75.9845 60.7013 77.95 65.141 77.95C69.5707 77.95 71.519 75.9944 72.0521 75.3178Z" fill="#5690FF" stroke="#5271FF" stroke-width="2"/>
<path d="M25.1876 85.506V85.5V38.4232C25.1876 34.7226 26.2166 32.3167 27.3898 30.6859C28.3636 29.3323 29.4359 28.4954 30.2882 27.8302C30.4851 27.6766 30.6702 27.5321 30.8397 27.3925C31.8756 26.5494 32.4745 25.4426 32.8112 23.9735C33.139 22.5432 33.2313 20.7111 33.2313 18.3487V1.78493C33.3617 1.68897 33.6042 1.56179 33.9804 1.43631C34.7433 1.18184 35.8565 1 37.1251 1C38.3937 1 39.5068 1.18184 40.2695 1.4363C40.6453 1.56164 40.8875 1.68864 41.0177 1.78444V18.3487C41.0177 20.6907 41.1104 22.5218 41.4381 23.9568C41.7739 25.4274 42.3712 26.5471 43.4092 27.3924C43.5789 27.5321 43.7642 27.6768 43.9613 27.8306C44.8137 28.4958 45.8859 29.3326 46.8598 30.686C48.0333 32.3168 49.0626 34.7226 49.0626 38.4232L49.0625 85.5L49.0626 85.5052C49.0639 85.7662 49.0284 86.0293 48.9656 86.2835V85.5022V79.6162V78.6162H47.9656H26.2879H25.2879V79.6162V85.5022V85.5144L25.2882 85.5266C25.3113 86.4732 25.6478 87.3616 26.4336 87.9994C27.1836 88.6081 28.2158 88.8835 29.4272 88.9238L29.4438 88.9244H29.4604H44.8178H44.835L44.8522 88.9238C46.0582 88.8823 47.0854 88.6109 47.8308 88.0005C48.3355 87.5872 48.6497 87.0701 48.8162 86.5022H48.9041C48.6986 87.156 48.3218 87.7244 47.9475 88.0016L47.946 88.0028C47.1179 88.6185 46.0737 89 44.8313 89H29.4593H29.4578C28.0901 89.0021 27.0333 88.7013 26.4224 88.0982L26.4222 88.098C25.6834 87.3688 25.1818 86.4588 25.1876 85.506ZM33.1548 1.85102C33.1544 1.851 33.1569 1.8477 33.1634 1.84122C33.1584 1.8478 33.1552 1.85105 33.1548 1.85102ZM41.0943 1.85059C41.0939 1.85061 41.0907 1.84738 41.0858 1.84084C41.0922 1.84729 41.0947 1.85056 41.0943 1.85059ZM41.0177 1.59332C41.0177 1.59276 41.0177 1.5922 41.0177 1.59163V1.593V1.59332ZM47.9644 77.1535H48.9644V76.1535V74.7697V74.107V73.7697V73.107V48.4616V48.0767V47.4616V47.0767V45.693V44.693H47.9644H26.2868H25.2868V45.693V47.0767V47.4616V48.0767V48.4616V73.107V73.7697V74.107V74.7697V76.1535V77.1535H26.2868H47.9644ZM47.9644 43.2314H48.9644V42.2314V38.4266H48.9645L48.9644 38.4151C48.9219 34.7483 48.0367 32.4017 46.823 30.7327C45.9471 29.5282 44.8685 28.6727 44.0407 28.0162C43.7752 27.8056 43.5355 27.6155 43.3366 27.4409L43.3365 27.4408C41.4386 25.7757 41.0174 23.2255 40.9407 19.7129L40.9193 18.7347H39.9409H34.3092H33.3314L33.3094 19.7123C33.2304 23.2265 32.8124 25.7759 30.9148 27.4408C30.7161 27.6149 30.4774 27.8043 30.2132 28.0138C29.3846 28.6709 28.3058 29.5265 27.4292 30.7331C26.2168 32.4019 25.3323 34.7481 25.2869 38.4142H25.2868V38.4266V42.2314V43.2314H26.2868H47.9644ZM41.6634 61.361L32.5867 65.1047V64.6379L41.6634 60.8942V61.361ZM29.8169 60.804V60.2538L44.4332 54.1204V54.6705L29.8169 60.804Z" fill="#5690FF" stroke="#5271FF" stroke-width="2"/>
<path d="M17.2249 61.7536L17.2253 61.7541C17.2256 61.7564 17.2258 61.76 17.2255 61.7652C17.2254 61.7655 17.2254 61.7658 17.2254 61.7661L15.8756 79.9879L15.8753 79.9919C15.8752 79.9941 15.8749 79.9953 15.8748 79.9957L15.8746 79.9963C15.8745 79.9965 15.8741 79.9971 15.8733 79.9979C15.8725 79.9986 15.8718 79.999 15.8713 79.9992C15.8712 79.9992 15.8697 80 15.8649 80H2.36378C2.36021 80 2.35892 79.9995 2.35849 79.9993L2.35846 79.9993C2.35755 79.9989 2.35603 79.9981 2.35434 79.9965C2.35265 79.995 2.35156 79.9934 2.35096 79.9921C2.35061 79.9914 2.34986 79.9898 2.34952 79.9859C2.34951 79.9858 2.3495 79.9857 2.34949 79.9855L1.00017 61.77C1.00013 61.7694 1.0001 61.7689 1.00008 61.7684C0.999865 61.7639 1.00012 61.7608 1.00037 61.7589L1.00072 61.757L1.00537 61.7519C1.00583 61.7516 1.0084 61.75 1.01378 61.75H17.216C17.2199 61.75 17.2213 61.7507 17.2214 61.7507C17.2214 61.7507 17.2226 61.7512 17.2249 61.7536L17.2249 61.7536ZM16.0271 75.3178L16.218 75.0755L16.2393 74.7678L17.0628 62.8439L17.1366 61.775H16.0651H2.17028H1.09962L1.1726 62.8432L1.9871 74.7648L2.0082 75.0735L2.19999 75.3164C2.7273 75.9841 4.67581 77.95 9.1149 77.95C13.5456 77.95 15.4939 75.9945 16.0271 75.3178ZM5.44046 68.8375H12.786L12.5906 72.6314C12.4663 72.7237 12.2915 72.8387 12.0628 72.9566C11.4799 73.2568 10.5229 73.5875 9.11378 73.5875C7.70414 73.5875 6.74694 73.2566 6.16388 72.9562C5.93504 72.8383 5.76023 72.7232 5.63576 72.6308L5.44046 68.8375ZM4.68256 73.1287L5.65878 73.1036C5.53715 73.3044 5.38729 73.4543 5.22765 73.5655C4.92025 73.3617 4.74307 73.1909 4.68256 73.1287Z" fill="#5690FF" stroke="#5271FF" stroke-width="2"/>
</svg>
