<svg width="56" height="80" viewBox="0 0 56 80" fill="none" xmlns="http://www.w3.org/2000/svg">
<path d="M7.58252 2.19552V2.1944C7.58252 1.53756 8.11993 1 8.77772 1H15.3609C16.0181 1 16.5561 1.5378 16.5561 2.1944C16.5561 2.47221 16.4579 2.72982 16.2901 2.9352H7.84739C7.67999 2.73029 7.58221 2.47319 7.58252 2.19552Z" fill="#5690FF" stroke="#5271FF" stroke-width="2"/>
<path d="M20.1393 33.4152L20.1395 33.4154C21.1782 34.4533 21.9168 35.4521 22.4015 36.5438C22.8843 37.6313 23.1376 38.8617 23.1376 40.3913V52.1737H22.592H20.9371L20.8665 51.7347C20.3764 48.6898 19.3072 45.9896 17.8188 44.0248C16.3333 42.0639 14.3516 40.7473 12.0696 40.7473C9.78754 40.7473 7.80605 42.0639 6.32067 44.0248C4.8324 45.9896 3.76325 48.6898 3.27273 51.7346L3.202 52.1737H1.8216H1V40.3897C1 38.8602 1.25343 37.6303 1.7363 36.5432C2.22107 35.4518 2.95978 34.4533 3.99818 33.4153L3.99844 33.415C6.48721 30.9254 6.48685 28.3526 6.48641 25.1548C6.48641 25.1121 6.4864 25.0694 6.4864 25.0265C6.4864 21.5307 7.48744 12.7754 8.13902 7.44213L8.21874 6.7896L7.65131 6.45769C7.61537 6.43666 7.59619 6.41422 7.58825 6.40152C7.58458 6.39565 7.58326 6.39192 7.58275 6.39018C7.58232 6.38874 7.5816 6.38592 7.5816 6.38006C7.5816 6.36959 7.58324 6.36296 7.58488 6.35834C7.5867 6.35326 7.58985 6.34701 7.59548 6.33993C7.60033 6.33383 7.60671 6.32754 7.61455 6.32166H16.5227C16.5306 6.32758 16.5371 6.33395 16.542 6.34019C16.5478 6.34741 16.551 6.35374 16.5528 6.3588C16.5544 6.3634 16.556 6.36987 16.556 6.38006C16.556 6.38759 16.555 6.39127 16.5546 6.39276C16.5541 6.3945 16.553 6.39763 16.5499 6.40251C16.5435 6.41277 16.5261 6.43414 16.4894 6.45543L15.9174 6.78657L15.9978 7.44257C16.6517 12.7751 17.6512 21.5307 17.6512 25.0265C17.6512 25.0694 17.6512 25.1123 17.6512 25.155C17.6507 28.3534 17.6504 30.9263 20.1393 33.4152ZM22.592 59.8657H23.1376V77.6921C23.1376 78.3508 22.6031 78.8873 21.9424 78.8873H2.1928C1.53691 78.8873 1 78.3508 1 77.6921V59.8657H1.8216H3.35796L3.45948 60.3523C4.04153 63.1423 5.12375 65.5962 6.57594 67.3757C8.02776 69.1548 9.91644 70.3297 12.0696 70.3297C14.2231 70.3297 16.1118 69.1548 17.5637 67.3757C19.0158 65.5962 20.098 63.1423 20.6805 60.3524L20.7821 59.8657H22.592Z" fill="#5690FF" stroke="#5271FF" stroke-width="2"/>
<path d="M33.9488 35.0696C33.9488 34.8191 34.1518 34.616 34.4024 34.616C34.6529 34.616 34.856 34.8191 34.856 35.0696C34.856 35.3201 34.6529 35.5232 34.4024 35.5232C34.1518 35.5232 33.9488 35.3201 33.9488 35.0696Z" fill="#5690FF" stroke="#5271FF" stroke-width="2"/>
<path d="M50.9178 37.7104H50.2287H49.1375H48.5395C48.5738 38.2049 48.6413 38.7115 48.714 39.244C48.718 39.2731 48.722 39.3022 48.726 39.3315C48.8921 40.5391 49.0849 41.9414 48.62 43.3366C48.4153 43.9514 48.1305 44.509 47.7569 44.9322C47.3863 45.3521 46.8485 45.7216 46.1703 45.7216C45.3213 45.7216 44.6361 45.1651 44.208 44.5558C43.757 43.9141 43.464 43.0564 43.4217 42.0893L43.4212 42.0775L43.4209 42.0657C43.4033 41.1892 43.5319 40.2443 43.6539 39.3467L43.6594 39.3062C43.7327 38.7667 43.804 38.2322 43.8489 37.7096H43.2847H36.4641C36.6467 37.9632 36.7543 38.2744 36.7543 38.6112C36.7543 39.4045 36.1569 40.0559 35.391 40.1468C35.6348 40.4207 35.7823 40.7816 35.7823 41.1752V41.1778C35.7806 41.848 35.3531 42.4228 34.7501 42.6346C34.8444 42.6166 34.9419 42.6072 35.0415 42.6072C35.8981 42.6072 36.5879 43.3024 36.5879 44.1536C36.5879 45.0065 35.8972 45.7 35.0415 45.7C34.5914 45.7 34.1872 45.5079 33.9052 45.2018C34.4147 48.5376 35.1266 52.2514 36.0059 56.0285L36.0061 56.0291C37.8344 63.9064 37.3149 70.2327 36.6409 75.0957L36.5028 76.0921L35.5072 75.9481C34.4337 75.7928 33.5413 75.6076 32.8828 75.4502L32.224 75.2928L32.0885 76.2096L32.0865 76.2091C32.0295 76.6423 31.9854 77.1295 32.1122 77.5642C32.2196 77.9327 32.4652 78.3346 33.2739 78.5541L33.3096 78.5638L33.3445 78.5761C33.8485 78.7538 34.5364 78.8662 35.4127 78.9286C36.2806 78.9905 37.2709 79 38.3617 79C38.3622 79 38.3627 79 38.3631 79L40.0409 78.9976L40.0438 78.9976L41.7239 79C41.7244 79 41.7249 79 41.7254 79C42.817 79 43.8083 78.9905 44.6769 78.9285C45.5541 78.866 46.2423 78.7534 46.7461 78.5755L46.7791 78.5638L46.8129 78.5545C47.6175 78.3322 47.8628 77.9335 47.9705 77.5745C48.1064 77.1211 48.0511 76.6111 47.9932 76.1648L50.9178 37.7104ZM50.9178 37.7104C50.4709 42.6751 49.3532 48.9475 48.0619 54.5145L50.9178 37.7104ZM47.9821 76.0797L47.9931 76.164L47.9821 76.0797ZM47.9821 76.0797L47.8489 75.2048L47.8154 74.9842L47.8153 74.984M47.9821 76.0797L47.8153 74.984M47.8153 74.984L47.8129 74.9681C47.0687 70.0829 46.0295 63.2616 48.0618 54.5148L47.8153 74.984ZM34.5292 42.6941C34.1456 42.8288 33.8318 43.1106 33.6543 43.4711C33.6118 43.1607 33.5713 42.8543 33.5328 42.5524C33.744 42.6606 33.9832 42.7216 34.2367 42.7216C34.3369 42.7216 34.4346 42.7121 34.5292 42.6941ZM34.0527 39.6396C33.7467 39.676 33.4683 39.8017 33.244 39.9898C33.1662 39.1814 33.1067 38.4188 33.0664 37.7096H33.9509C33.7684 37.9633 33.6607 38.2746 33.6607 38.6112C33.6607 39.0063 33.809 39.3665 34.0527 39.6396ZM49.2511 24.4304C49.3255 24.8448 49.7031 25.132 50.1255 25.0888L41.1951 24.0488C41.4119 23.9744 41.5863 23.8104 41.6759 23.5992C42.2983 22.1192 43.7375 21.1632 45.3423 21.1632C47.2655 21.1632 48.9095 22.5376 49.2511 24.4304Z" fill="#5690FF" stroke="#5271FF" stroke-width="2"/>
</svg>
