<svg width="70" height="78" viewBox="0 0 70 78" fill="none" xmlns="http://www.w3.org/2000/svg">
<path d="M44.5563 40.6623C43.9698 35.8232 42.4616 31.8746 39.4096 29.24L39.4093 29.2397C38.3473 28.3223 37.2429 27.3298 36.1884 26.3348C35.2727 27.7446 34.0935 28.9495 32.8861 29.9371L32.8746 29.9465L32.8629 29.9555C31.2179 31.2214 29.1171 32.5396 26.9993 32.536C24.8825 32.5324 22.8663 31.2501 21.1725 29.9581L21.161 29.9493L21.1498 29.9402C19.9362 28.9577 18.7421 27.7539 17.8147 26.3345L44.5563 40.6623ZM44.5563 40.6623C44.6066 41.0792 44.6726 41.4675 44.7357 41.831L45.2163 44.5998L46.5928 42.1498C46.2526 42.7555 45.8981 43.4049 45.5433 44.0818C45.543 44.0825 45.5426 44.0831 45.5423 44.0838L46.428 44.548C44.673 47.858 42.972 51.917 43 54.217M44.5563 40.6623L55.4979 63L55.499 62M43 54.217L42 54.2196C42 54.2213 42 54.2229 42 54.2246C42 54.2261 42.0001 54.2276 42.0001 54.2292L43 54.217ZM43 54.217C43.006 56.508 44.269 58.366 46.528 59.782C48.779 61.179 51.991 62.004 55.499 62M55.499 62C59.005 62.004 62.217 61.179 64.468 59.782C66.728 58.366 67.992 56.506 67.998 54.217M55.499 62L55.5001 63L67.998 54.217M67.998 54.217C68.027 51.917 66.323 47.858 64.568 44.548C63.251 42.032 61.933 39.897 61.365 39.001L67.998 54.217ZM49.0843 37.999C49.0839 37.9997 49.0834 38.0003 49.083 38.001L49.0843 37.999ZM49.0843 37.999C49.0932 37.9853 49.0983 37.9772 49.0997 37.9751L49.084 37.9654L48.248 37.451L49.0811 38.0015M49.0843 37.999L49.0811 38.0015M49.0811 38.0015L48.9912 38.1436M49.0811 38.0015L49.0822 38.0022C49.0813 38.0036 49.0803 38.0051 49.0794 38.0066C49.0613 38.0347 49.0315 38.0807 48.9912 38.1436M48.9912 38.1436C48.7321 38.5474 48.0353 39.6466 47.1694 41.1398C47.8655 39.9399 48.4538 38.9928 48.787 38.4663L48.9912 38.1436ZM53.472 67.5797L52.0568 67.7932C50.2192 68.0704 48.5809 68.57 47.3713 69.2544C46.2188 69.9065 45.1685 70.9027 45.166 72.2621L45.0644 71.3838L43.9782 71.6297C42.9185 71.8696 41.855 72.001 40.83 72.001H13.171C10.31 72.001 7.22348 71.0726 4.87494 69.3926C2.53939 67.7218 1 65.366 1 62.475C1 59.1534 2.89189 55.4278 4.9611 52.0876L4.96113 52.0876C7.35834 48.2174 8.88483 45.2601 9.44467 40.6629L9.44474 40.6623C10.0312 35.8235 11.5402 31.8749 14.5921 29.2403L53.472 67.5797ZM53.472 67.5797V63.971V62.926L53.8522 62.9428C50.837 62.7283 48.0737 61.9182 46.0007 60.6317L45.9969 60.6293L53.472 67.5797ZM23.8499 3.5742C23.8706 2.32984 22.8898 1.78631 22.3185 1.58683C22.566 1.23207 22.9773 1 23.444 1H30.555C31.012 1 31.4165 1.22298 31.6658 1.56577C31.3666 1.66751 31.0042 1.84147 30.7028 2.14987C30.3543 2.50643 30.1393 2.99204 30.1491 3.57492C30.1589 4.14963 30.381 4.62306 30.7256 4.97054C31.0218 5.26923 31.3734 5.4411 31.6685 5.54317C31.4194 5.88847 31.0135 6.113 30.555 6.113H23.444C23.001 6.113 22.6073 5.90368 22.3568 5.57797C22.6533 5.47771 22.9958 5.30636 23.2843 5.00633C23.6363 4.64024 23.8408 4.15139 23.8499 3.5742ZM23.8499 3.5742C23.8499 3.57448 23.8499 3.57476 23.8499 3.57505L22.85 3.558M23.8499 3.5742C23.8499 3.57398 23.8499 3.57375 23.8499 3.57353L22.85 3.558M22.85 3.558C22.87 2.385 21.073 2.37 21.073 2.37L22.85 3.558ZM30.609 9.965V19.2556C30.4403 19.3007 30.2436 19.3499 30.0235 19.3992C29.2307 19.5766 28.1549 19.751 27 19.751C25.8451 19.751 24.7693 19.5766 23.9765 19.3992C23.7564 19.3499 23.5597 19.3007 23.391 19.2556V9.965H23.695V14.233V15.233H24.695H29.305H30.305V14.233V9.965H30.609ZM31.4528 23.1681C31.9397 23.0422 32.3515 22.916 32.6663 22.8116L33.234 23.486C32.6078 24.6842 31.5306 25.8932 30.3437 26.8494C29.6702 27.3921 28.99 27.8298 28.3818 28.1252C27.7523 28.431 27.2874 28.5415 27.0177 28.5372C26.7314 28.5319 26.2535 28.4074 25.6215 28.0974C25.0092 27.7971 24.3268 27.3596 23.653 26.8208C22.4654 25.8713 21.3905 24.6773 20.7659 23.4854L21.3322 22.8117C21.6471 22.916 22.059 23.0423 22.5459 23.1682C23.6905 23.4641 25.2746 23.765 27 23.765C28.725 23.765 30.3086 23.4641 31.4528 23.1681ZM55.3053 62.9994C55.3698 62.9999 55.4343 63.0001 55.499 63L55.6825 62.9995C55.6214 63.0005 55.5603 63.001 55.499 63.001C55.4345 63.001 55.37 63.0004 55.3053 62.9994ZM57.522 62.9289L57.0874 62.9468C57.3603 62.9281 57.6311 62.9045 57.8996 62.8761L57.575 62.9188V63.796V66.758V67.5859L57.522 67.5779V63.971V62.9289ZM64.9961 60.6318C64.9367 60.6685 64.8767 60.7047 64.8163 60.7406C64.8765 60.7046 64.9362 60.6684 64.9953 60.6317L64.9989 60.6294C65.9819 60.0135 66.8166 59.302 67.4651 58.4955C66.8137 59.3124 65.977 60.0309 64.9986 60.6303L64.9961 60.6318ZM69 54.2213C69.0014 54.868 68.9107 55.4898 68.7375 56.0822C68.9063 55.4967 68.9958 54.8774 68.998 54.2245C68.9984 54.1889 68.9985 54.1531 68.9982 54.117C68.9991 54.152 68.9997 54.1867 69 54.2213ZM67.8945 49.4012C68.2489 50.3452 68.5335 51.2528 68.7253 52.102C68.5258 51.2429 68.2311 50.3267 67.8886 49.411C67.5737 48.5689 67.208 47.7006 66.8148 46.8401C67.2088 47.6941 67.5766 48.5543 67.8945 49.4012ZM65.4563 44.0803C65.5312 44.225 65.606 44.3705 65.6808 44.5168C65.6049 44.3704 65.5288 44.2253 65.4526 44.0817C64.1186 41.5335 62.7856 39.3743 62.2096 38.4656L61.986 38.1129C62.2962 38.5941 63.868 41.0559 65.4563 44.0803ZM61.9128 38.001H61.365H49.632H49.0832C49.084 38 49.0845 37.9995 49.0848 37.9992L49.0851 37.999H61.9115C61.9117 37.9993 61.912 37.9997 61.9123 38.0002L61.9128 38.001ZM57.8361 69.0801C57.9144 69.329 58.0138 69.6145 58.1519 69.8977C58.3488 70.3173 58.5993 70.6912 58.8731 70.9871C59.1165 71.2501 59.4588 71.5388 59.8746 71.6641C59.87 71.666 59.8653 71.6672 59.8606 71.6675C59.8566 71.6678 59.852 71.6677 59.8461 71.6661C59.0311 71.3807 58.5061 70.7107 58.0985 69.884C57.8295 69.3151 57.6615 68.7567 57.5803 68.2671L57.8361 69.0801ZM52.1237 70.9862C52.396 70.6913 52.6456 70.3189 52.8426 69.9008C52.9834 69.6157 53.0833 69.3268 53.1603 69.0807L53.4152 68.2665C53.3348 68.7559 53.1669 69.315 52.8979 69.8854C52.4639 70.77 51.9663 71.4385 51.1968 71.6524C51.1592 71.6628 51.1334 71.666 51.118 71.6668C51.1184 71.6666 51.1189 71.6663 51.1194 71.666C51.1199 71.6657 51.1205 71.6654 51.1212 71.665C51.5381 71.5399 51.881 71.2493 52.1237 70.9862ZM51.1139 71.6688C51.1137 71.6712 51.1133 71.672 51.1134 71.6717L51.114 71.6672C51.114 71.6677 51.114 71.6683 51.1139 71.6688ZM16.805 54.561C16.805 53.0131 17.7759 51.4763 19.6277 50.2782C21.4695 49.0867 24.074 48.317 27.002 48.317C29.9284 48.317 32.5318 49.0868 34.373 50.2785C36.2243 51.4767 37.195 53.0135 37.195 54.561C37.195 56.1085 36.2244 57.645 34.3731 58.8429C32.5319 60.0344 29.9285 60.804 27.002 60.804C24.0745 60.804 21.47 60.0344 19.628 58.8428C17.7759 57.6448 16.805 56.1083 16.805 54.561ZM17.44 54.562C17.44 56.3799 18.7934 57.7976 20.4747 58.7022C22.1967 59.6288 24.5068 60.171 27.003 60.171C29.4983 60.171 31.8074 59.6288 33.5288 58.7021C35.2095 57.7974 36.562 56.3796 36.562 54.562C36.562 52.7449 35.2095 51.3269 33.5289 50.4218C31.8076 49.4948 29.4984 48.952 27.003 48.952C24.5071 48.952 22.197 49.4948 20.4749 50.4217C18.7937 51.3266 17.44 52.7445 17.44 54.562ZM55.499 77.001C55.2955 77.001 55.0935 76.9982 54.8932 76.9926C55.0938 76.9975 55.2958 77 55.499 77C55.7032 77 55.9061 76.9975 56.1076 76.9925C55.9064 76.9981 55.7035 77.001 55.499 77.001ZM12.829 54.561C12.829 57.5231 14.5464 60.1021 17.115 61.8993C19.6867 63.6988 23.186 64.78 27.003 64.78C30.819 64.78 34.3169 63.6988 36.8875 61.8992C39.4549 60.1018 41.171 57.5228 41.171 54.561C41.171 51.6001 39.4549 49.0209 36.8876 47.2231C34.3171 45.4231 30.8192 44.341 27.003 44.341C23.1854 44.341 19.6861 45.423 17.1144 47.223C14.5461 49.0207 12.829 51.5999 12.829 54.561ZM55.499 58.622C52.9282 58.622 50.6237 58.0162 48.9965 56.9952C47.7317 56.2016 46.9149 55.1907 46.6211 54.022H64.3769C64.0831 55.1906 63.2661 56.2015 62.0011 56.9952C60.3737 58.0163 58.0693 58.622 55.499 58.622Z" fill="#5690FF" stroke="#5271FF" stroke-width="2"/>
</svg>
