<svg width="78" height="98" viewBox="0 0 78 98" fill="none" xmlns="http://www.w3.org/2000/svg">
<path d="M25.6526 72.7356V73.7356H26.6526H49.2496C48.9833 75.7994 47.2168 77.4 45.1183 77.4H9.94892C7.66448 77.4 5.77596 75.5107 5.77596 73.1942L5.77596 52.6182L5.77595 52.6144C5.76659 50.1155 6.6977 47.7597 8.18707 45.4618C9.68123 43.1566 11.6933 40.9748 13.769 38.8223C14.0845 38.4951 14.4021 38.168 14.7195 37.8411C16.4623 36.0461 18.1995 34.2569 19.5578 32.4868C21.1591 30.4002 22.369 28.175 22.379 25.8009V25.7967V25.7404V25.6843V25.6286V25.573V25.5178V25.4628V25.4081V25.3537V25.2996V25.2457V25.192V25.1387V25.0856V25.0328V24.9802V24.9279V24.8758V24.824V24.7725V24.7212V24.6702V24.6195V24.5689V24.5187V24.4687V24.4189V24.3694V24.3202V24.2711V24.2224V24.1739V24.1256V24.0775V24.0297V23.9822V23.9349V23.8878V23.841V23.7944V23.748V23.7019V23.656V23.6103V23.5649V23.5196V23.4747V23.4299V23.3854V23.3411V23.297V23.2532V23.2095V23.1661V23.1229V23.08V23.0372V22.9947V22.9523V22.9102V22.8683V22.8267V22.7852V22.7439V22.7029V22.662V22.6214V22.581V22.5407V22.5007V22.4609V22.4213V22.3819V22.3426V22.3036V22.2648V22.2262V22.1877V22.1495V22.1115V22.0736V22.0359V21.9985V21.9612V21.9241V21.8872V21.8504V21.8139V21.7775V21.7414V21.7054V21.6696V21.6339V21.5985V21.5632V21.5281V21.4931V21.4584V21.4238V21.3894V21.3551V21.321V21.2871V21.2534V21.2198V21.1864V21.1532V21.1201V21.0871V21.0544V21.0218V20.9893V20.957V20.9249V20.8929V20.8611V20.8294V20.7979V20.7665V20.7353V20.7042V20.6733V20.6425V20.6119V20.5814V20.5511V20.5208V20.4908V20.4609V20.4311V20.4014V20.3719V20.3425V20.3133V20.2842V20.2552V20.2264V20.1976V20.1691V20.1406V20.1123V20.0841V20.056V20.028V20.0002V19.9725V19.9449V19.9174V19.89V19.8628V19.8357V19.8087V19.7818V19.755V19.7283V19.7017V19.6753V19.649V19.6227V19.5966V19.5706V19.5446V19.5188V19.4931V19.4675V19.442V19.4166V19.3912V19.366V19.3409V19.3158V19.2909V19.2661V19.2413V19.2166V19.192V19.1676V19.1432V19.1188V19.0946V19.0704V19.0464V19.0224V18.9985V18.9747V18.9509V18.9272V18.9036V18.8801V18.8567V18.8333V18.81V18.7867V18.7636V18.7405V18.7174V18.6945V18.6716V18.6487V18.626V18.6033V18.5806V18.558V18.5355V18.513V18.4906V18.4682V18.4459V18.4237V18.4015V18.3793V18.3572V18.3352V18.3131V18.2912V18.2693V18.2474V18.2256V18.2038V18.182V18.1603V18.1387V18.1171V18.0955V18.0739V18.0524V18.0309V18.0094V17.988V17.9666V17.9453V17.9239V17.9026V17.8814V17.8601V17.8389V17.8177V17.7965V17.7753V17.7541V17.733V17.7119V17.6908V17.6697V17.6487V17.6276V17.6066V17.5855V17.5645V17.5435V17.5225V17.5015V17.4805V17.4595V17.4385V17.4176V17.3966V17.3756V17.3546V17.3336V17.3126V17.2916V17.2706V17.2496V17.2286V17.2076V17.1866V17.1655V17.1445V17.1234V17.1023V17.0812V17.0601V17.039V17.0178V16.9967V16.9755V16.9543V16.933V16.9118V16.8905V16.8692V16.8479V16.8265V16.8051V16.7837V16.7622V16.7408V16.7192V16.6977V16.6761V16.6545V16.6328V16.6111V16.5893V16.5676V16.5457V16.5239V16.502V16.48V16.458V16.4359V16.4138V16.3917V16.3695V16.3472V16.3249V16.3025V16.2801V16.2576V16.2351V16.2125V16.1899V16.1672V16.1444V16.1216V16.0987V16.0757V16.0527V16.0296V16.0064V15.9832V15.9599V15.9365V15.913V15.8895V15.8659V15.8422V15.8185V15.7947V15.7708V15.7468V15.7227V15.6985V15.6743V15.65V15.6256V15.6011V15.5765V15.5518V15.5271V15.5022V15.4773V15.4523V15.4271V15.4019V15.3766V15.3512V15.3257V15.3V15.2743V15.2485V15.2226V15.1966V15.1704V15.1442V15.1178V15.0914V15.0648V15.0382V15.0114V14.9845V14.9575V14.9303V14.9031V14.8757V14.8483V14.8207V14.793V14.7651V14.7372V14.7091V14.6809V14.6525V14.6241V14.5955V14.5668V14.5379V14.509V14.4798V14.4506V14.4212V14.3917V14.3621V14.3323V14.3024V14.2723V14.2421V14.2117V14.1812V14.1506V14.1198V14.0889V14.0578V14.0266V13.9952V13.9637V13.932V13.9002V13.8682V13.8361V13.8038V13.7714V13.7388V13.706V13.6731V13.64V13.6067V13.5733V13.5397V13.506V13.4721V13.438V13.4038V13.3694V13.3348V13.3V13.2651V13.23V13.1947V13.1592V13.1236V13.0878V13.0518V13.0156V12.9792V12.9427V12.906V12.8691V12.832V12.7947V12.7572V12.7195V12.6817V12.6436V12.6054V12.567V12.5283V12.4895V12.4505V12.4113V12.3719V12.3322V12.2924V12.2524V12.2122V12.1717V12.1311V12.0903V12.0492V12.008V11.9665V11.9248V11.8829V11.8408V11.7985V11.7559V11.7132V11.6702V11.627V11.5836V11.54V11.4961V11.4521V11.4078V11.3632V11.3185V11.2735V11.2283V11.1828V11.1372V11.0913V11.0451V10.9988V10.9522V10.9053V10.8583V10.8109V10.7634V10.7156V10.6676V10.6193V10.5708V10.522V10.473V10.4237V10.3742V10.3245V10.2744V10.2242V10.1737V10.1229V10.0719V10.0206V9.96909V9.9173V9.86526V9.81295V9.76038V9.70755V9.65445V9.6011V9.54747V9.49358V9.43942V9.385V9.3303V9.27534V9.2201V9.16458V9.1088V9.05274V9.00009C22.3828 8.41742 22.2089 7.92438 21.8599 7.54085C21.5597 7.21099 21.1848 7.03315 20.9826 6.93721L20.9683 6.93043C20.952 6.92272 20.9368 6.91547 20.9223 6.90861C20.8279 6.86386 20.7687 6.83581 20.7126 6.80474C20.703 6.79941 20.6946 6.79456 20.6872 6.79018V1H20.6994H20.7274H20.7555H20.7836H20.8117H20.8397H20.8678H20.8959H20.9239H20.952H20.9801H21.0081H21.0362H21.0643H21.0924H21.1204H21.1485H21.1766H21.2046H21.2327H21.2608H21.2889H21.3169H21.345H21.3731H21.4012H21.4292H21.4573H21.4854H21.5135H21.5415H21.5696H21.5977H21.6258H21.6539H21.6819H21.71H21.7381H21.7662H21.7943H21.8223H21.8504H21.8785H21.9066H21.9347H21.9627H21.9908H22.0189H22.047H22.0751H22.1031H22.1312H22.1593H22.1874H22.2155H22.2436H22.2716H22.2997H22.3278H22.3559H22.384H22.4121H22.4401H22.4682H22.4963H22.5244H22.5525H22.5806H22.6087H22.6368H22.6648H22.6929H22.721H22.7491H22.7772H22.8053H22.8334H22.8615H22.8895H22.9176H22.9457H22.9738H23.0019H23.03H23.0581H23.0862H23.1143H23.1424H23.1705H23.1985H23.2266H23.2547H23.2828H23.3109H23.339H23.3671H23.3952H23.4233H23.4514H23.4795H23.5076H23.5357H23.5638H23.5919H23.62H23.648H23.6761H23.7042H23.7323H23.7604H23.7885H23.8166H23.8447H23.8728H23.9009H23.929H23.9571H23.9852H24.0133H24.0414H24.0695H24.0976H24.1257H24.1538H24.1819H24.21H24.2381H24.2662H24.2943H24.3224H24.3505H24.3786H24.4067H24.4348H24.4629H24.491H24.5191H24.5472H24.5753H24.6034H24.6315H24.6596H24.6877H24.7158H24.7439H24.772H24.8001H24.8282H24.8563H24.8844H24.9125H24.9406H24.9688H24.9969H25.025H25.0531H25.0812H25.1093H25.1374H25.1655H25.1936H25.2217H25.2498H25.2779H25.306H25.3341H25.3622H25.3903H25.4184H25.4465H25.4747H25.5028H25.5309H25.559H25.5871H25.6152H25.6433H25.6714H25.6995H25.7276H25.7557H25.7838H25.8119H25.8401H25.8682H25.8963H25.9244H25.9525H25.9806H26.0087H26.0368H26.0649H26.093H26.1212H26.1493H26.1774H26.2055H26.2336H26.2617H26.2898H26.3179H26.346H26.3741H26.4023H26.4304H26.4585H26.4866H26.5147H26.5428H26.5709H26.599H26.6271H26.6553H26.6834H26.7115H26.7396H26.7677H26.7958H26.8239H26.852H26.8802H26.9083H26.9364H26.9645H26.9926H27.0207H27.0488H27.077H27.1051H27.1332H27.1613H27.1894H27.2175H27.2456H27.2738H27.3019H27.33H27.3581H27.3862H27.4143H27.4424H27.4706H27.4987H27.5268H27.5549H27.583H27.6111H27.6392H27.6674H27.6955H27.7236H27.7517H27.7798H27.8079H27.836H27.8642H27.8923H27.9204H27.9485H27.9766H28.0047H28.0329H28.061H28.0891H28.1172H28.1453H28.1734H28.2015H28.2297H28.2578H28.2859H28.314H28.3421H28.3702H28.3984H28.4265H28.4546H28.4827H28.5108H28.5389H28.5671H28.5952H28.6233H28.6514H28.6795H28.7076H28.7358H28.7639H28.792H28.8201H28.8482H28.8763H28.9045H28.9326H28.9607H28.9888H29.0169H29.045H29.0732H29.1013H29.1294H29.1575H29.1856H29.2137H29.2419H29.27H29.2981H29.3262H29.3543H29.3824H29.4106H29.4387H29.4668H29.4949H29.523H29.5511H29.5793H29.6074H29.6355H29.6636H29.6917H29.7198H29.748H29.7761H29.8042H29.8323H29.8604H29.8885H29.9167H29.9448H29.9729H30.001H30.0291H30.0572H30.0854H30.1135H30.1416H30.1697H30.1978H30.2259H30.254H30.2822H30.3103H30.3384H30.3665H30.3946H30.4227H30.4509H30.479H30.5071H30.5352H30.5633H30.5914H30.6196H30.6477H30.6758H30.7039H30.732H30.7601H30.7882H30.8164H30.8445H30.8726H30.9007H30.9288H30.9569H30.9851H31.0132H31.0413H31.0694H31.0975H31.1256H31.1537H31.1819H31.21H31.2381H31.2662H31.2943H31.3224H31.3505H31.3787H31.4068H31.4349H31.463H31.4911H31.5192H31.5473H31.5755H31.6036H31.6317H31.6598H31.6879H31.716H31.7441H31.7722H31.8004H31.8285H31.8566H31.8847H31.9128H31.9409H31.969H31.9971H32.0253H32.0534H32.0815H32.1096H32.1377H32.1658H32.1939H32.222H32.2501H32.2783H32.3064H32.3345H32.3626H32.3907H32.4188H32.4469H32.475H32.5031H32.5312H32.5594H32.5875H32.6156H32.6437H32.6718H32.6999H32.728H32.7561H32.7842H32.8123H32.8404H32.8686H32.8967H32.9248H32.9529H32.981H33.0091H33.0372H33.0653H33.0934H33.1215H33.1496H33.1777H33.2058H33.234H33.2621H33.2902H33.3183H33.3464H33.3745H33.4026H33.4307H33.4588H33.4869H33.515H33.5431H33.5712H33.5993H33.6274H33.6555H33.6836H33.7117H33.7398H33.768H33.7961H33.8242H33.8523H33.8804H33.9085H33.9366H33.9647H33.9928H34.0209H34.049H34.0771H34.0852V6.78974C34.0779 6.79411 34.0695 6.79894 34.0599 6.80426C34.0041 6.83526 33.9452 6.86323 33.8512 6.90786C33.8365 6.91479 33.8211 6.92213 33.8047 6.92995L33.7905 6.9367C33.5885 7.03268 33.2137 7.21083 32.9139 7.54144C32.5646 7.92671 32.3922 8.42165 32.3981 9.00566L32.3982 9.01251L32.682 25.8068C32.694 28.1574 33.8811 30.3619 35.4575 32.4297C36.8218 34.2191 38.5748 36.026 40.3332 37.8384C40.6142 38.128 40.8954 38.4178 41.1751 38.7077C43.2317 40.839 45.2353 42.9981 46.7437 45.2782C48.0383 47.2351 48.9348 49.2329 49.1961 51.3234H26.6526H25.6526V52.3234V72.7356Z" fill="#5690FF" stroke="#5271FF" stroke-width="2"/>
<path d="M61.8642 75.0627C63.1601 75.7124 64.735 75.8098 66.2509 75.8284C66.2886 75.8292 66.3266 75.8296 66.3647 75.8297L66.3763 73.8297C66.3453 73.8294 66.3144 73.8291 66.2837 73.8287C64.9389 73.7988 64.0403 73.1043 63.4381 72.345C63.1286 71.9546 62.9096 71.5596 62.7684 71.2608C62.7396 71.2 62.7144 71.1438 62.6925 71.093L62.5645 70.7528C62.4787 70.5246 62.4046 70.2746 62.3485 69.9858L61.2708 61.9027H70.8879H71.2069H72.5727H72.8391L70.6739 77.4H67.4887H67.0885H60.664L60.1308 73.5815C60.589 74.2277 61.1697 74.7145 61.8642 75.0627ZM62.5807 70.8064C62.5803 70.8052 62.5801 70.8048 62.5803 70.8052L62.5807 70.8064Z" fill="#5690FF" stroke="#5271FF" stroke-width="2"/>
<path d="M41.4019 56.3016L42.6031 58.747L42.8353 59.2195L43.3561 59.2956L46.0505 59.6892L44.0978 61.6037L43.7242 61.97L43.812 62.4858L44.2715 65.1825L41.869 63.9127L41.4017 63.6657L40.9344 63.9127L38.5323 65.1823L38.9921 62.4859L39.0801 61.9699L38.7063 61.6036L36.7528 59.6892L39.448 59.2956L39.969 59.2195L40.2011 58.7468L41.4019 56.3016Z" fill="#5690FF" stroke="#5271FF" stroke-width="2"/>
<mask id="path-5-inside-1" fill="white">
<path d="M44.9919 69.3613H37.812V70.3773H44.9919V69.3613Z"/>
</mask>
<path d="M44.9919 69.3613H37.812V70.3773H44.9919V69.3613Z" fill="#5690FF"/>
<path d="M37.812 69.3613V67.3613H35.812V69.3613H37.812ZM44.9919 69.3613H46.9919V67.3613H44.9919V69.3613ZM44.9919 70.3773V72.3773H46.9919V70.3773H44.9919ZM37.812 70.3773H35.812V72.3773H37.812V70.3773ZM37.812 71.3613H44.9919V67.3613H37.812V71.3613ZM42.9919 69.3613V70.3773H46.9919V69.3613H42.9919ZM44.9919 68.3773H37.812V72.3773H44.9919V68.3773ZM39.812 70.3773V69.3613H35.812V70.3773H39.812Z" fill="#5271FF" mask="url(#path-5-inside-1)"/>
</svg>
