<svg width="64" height="91" viewBox="0 0 64 91" fill="none" xmlns="http://www.w3.org/2000/svg">
<path d="M43.7778 88.6187C44.7666 87.6942 45.5327 86.5262 45.9612 85.1202C46.3899 86.5285 47.1578 87.6979 48.1494 88.623C48.3455 88.806 48.5496 88.9788 48.7606 89.1415L43.1632 89.1409C43.3755 88.977 43.5807 88.803 43.7778 88.6187ZM45.9637 68.6905C45.7341 67.8266 45.4003 66.999 44.9616 66.2034L45.6919 65.6633L39.3852 55.4869H45.781H46.5059L46.7314 54.7979C46.9219 54.2155 47.3526 53.5644 48.0251 53.0166C48.0991 52.9565 48.1738 52.8995 48.249 52.8456C48.2488 53.4411 48.6856 53.9578 49.2855 54.0493C49.3694 54.0622 49.4365 54.0618 49.4499 54.0618L49.4515 54.0617H50.3162L50.3253 53.9992C50.5488 54.1325 50.811 54.2132 51.1026 54.219C50.9354 54.5236 50.7015 54.8362 50.4024 55.1379L50.5702 55.348L50.5042 55.4869H50.6811L51.642 56.6903C52.0601 56.4294 52.6654 56.0124 53.1799 55.4869H56.2917L47.1233 65.9684L47.0545 66.047L47.0035 66.1382C46.5464 66.9546 46.2002 67.8035 45.9637 68.6905Z" fill="#5690FF" stroke="#5271FF" stroke-width="2"/>
<mask id="path-2-inside-1" fill="white">
<path d="M54.0305 90.1421H53.8397H37.8888C37.7177 90.1421 37.5791 90.2798 37.5791 90.4527C37.5791 90.6256 37.7168 90.7633 37.8888 90.7633H54.0314C54.2025 90.7633 54.342 90.6247 54.342 90.4518C54.342 90.2789 54.2025 90.1421 54.0305 90.1421Z"/>
</mask>
<path d="M54.0305 90.1421H53.8397H37.8888C37.7177 90.1421 37.5791 90.2798 37.5791 90.4527C37.5791 90.6256 37.7168 90.7633 37.8888 90.7633H54.0314C54.2025 90.7633 54.342 90.6247 54.342 90.4518C54.342 90.2789 54.2025 90.1421 54.0305 90.1421Z" fill="#5690FF"/>
<path d="M54.0305 88.1421H53.8397V92.1421H54.0305V88.1421ZM53.8397 88.1421H37.8888V92.1421H53.8397V88.1421ZM37.8888 88.1421C36.6132 88.1421 35.5791 89.1753 35.5791 90.4527H39.5791C39.5791 91.3844 38.8223 92.1421 37.8888 92.1421V88.1421ZM35.5791 90.4527C35.5791 91.7263 36.6085 92.7633 37.8888 92.7633V88.7633C38.8252 88.7633 39.5791 89.5248 39.5791 90.4527H35.5791ZM37.8888 92.7633H54.0314V88.7633H37.8888V92.7633ZM54.0314 92.7633C55.3071 92.7633 56.342 91.7292 56.342 90.4518H52.342C52.342 89.5201 53.0979 88.7633 54.0314 88.7633V92.7633ZM56.342 90.4518C56.342 89.1555 55.2881 88.1421 54.0305 88.1421V92.1421C53.1169 92.1421 52.342 91.4024 52.342 90.4518H56.342Z" fill="#5271FF" mask="url(#path-2-inside-1)"/>
<path d="M16.3349 19.0365H9.8442C10.1847 18.0505 10.3948 17.0014 10.3948 15.8761V7.61303V6.61303H10.1326C10.075 6.51756 10.0076 6.42735 9.93028 6.3429C9.66884 6.05734 9.34646 5.90544 9.19143 5.83238C9.18609 5.82987 9.18096 5.82745 9.17603 5.82512C9.14596 5.81091 9.12024 5.79861 9.09832 5.78802V1.77695H9.09854H9.10031H9.10209H9.10386H9.10563H9.10741H9.10918H9.11096H9.11273H9.11451H9.11628H9.11806H9.11983H9.12161H9.12338H9.12516H9.12693H9.12871H9.13048H9.13226H9.13403H9.13581H9.13758H9.13935H9.14113H9.1429H9.14468H9.14645H9.14823H9.15H9.15178H9.15355H9.15533H9.1571H9.15887H9.16065H9.16242H9.1642H9.16597H9.16775H9.16952H9.1713H9.17307H9.17484H9.17662H9.17839H9.18017H9.18194H9.18372H9.18549H9.18727H9.18904H9.19081H9.19259H9.19436H9.19614H9.19791H9.19969H9.20146H9.20323H9.20501H9.20678H9.20856H9.21033H9.21211H9.21388H9.21565H9.21743H9.2192H9.22098H9.22275H9.22452H9.2263H9.22807H9.22985H9.23162H9.23339H9.23517H9.23694H9.23872H9.24049H9.24226H9.24404H9.24581H9.24759H9.24936H9.25113H9.25291H9.25468H9.25646H9.25823H9.26H9.26178H9.26355H9.26533H9.2671H9.26887H9.27065H9.27242H9.27419H9.27597H9.27774H9.27952H9.28129H9.28306H9.28484H9.28661H9.28838H9.29016H9.29193H9.2937H9.29548H9.29725H9.29902H9.3008H9.30257H9.30435H9.30612H9.30789H9.30966H9.31144H9.31321H9.31499H9.31676H9.31853H9.3203H9.32208H9.32385H9.32562H9.3274H9.32917H9.33094H9.33272H9.33449H9.33626H9.33804H9.33981H9.34158H9.34336H9.34513H9.3469H9.34868H9.35045H9.35222H9.35399H9.35577H9.35754H9.35931H9.36109H9.36286H9.36463H9.3664H9.36818H9.36995H9.37172H9.3735H9.37527H9.37704H9.37881H9.38059H9.38236H9.38413H9.3859H9.38768H9.38945H9.39122H9.39299H9.39477H10.3948V1.73193H15.7998V1.77605H16.7998H16.8016H16.8034H16.8052H16.807H16.8088H16.8105H16.8123H16.8141H16.8159H16.8177H16.8195H16.8212H16.823H16.8248H16.8266H16.8284H16.8302H16.8319H16.8337H16.8355H16.8373H16.8391H16.8409H16.8426H16.8444H16.8462H16.848H16.8498H16.8515H16.8533H16.8551H16.8569H16.8587H16.8605H16.8622H16.864H16.8658H16.8676H16.8694H16.8712H16.8729H16.8747H16.8765H16.8783H16.8801H16.8818H16.8836H16.8854H16.8872H16.889H16.8908H16.8925H16.8943H16.8961H16.8979H16.8997H16.9015H16.9032H16.905H16.9068H16.9086H16.9104H16.9121H16.9139H16.9157H16.9175H16.9193H16.9211H16.9228H16.9246H16.9264H16.9282H16.93H16.9317H16.9335H16.9353H16.9371H16.9389H16.9407H16.9424H16.9442H16.946H16.9478H16.9496H16.9513H16.9531H16.9549H16.9567H16.9585H16.9602H16.962H16.9638H16.9656H16.9674H16.9692H16.9709H16.9727H16.9745H16.9763H16.9781H16.9798H16.9816H16.9834H16.9852H16.987H16.9888H16.9905H16.9923H16.9941H16.9959H16.9977H16.9994H17.0012H17.003H17.0048H17.0066H17.0083H17.0101H17.0119H17.0137H17.0155H17.0173H17.019H17.0208H17.0226H17.0244H17.0262H17.0279H17.0297H17.0315H17.0333H17.0351H17.0368H17.0386H17.0404H17.0422H17.044H17.0457H17.0475H17.0493H17.0511H17.0529H17.0547H17.0564H17.0582H17.06H17.0618H17.0636H17.0653H17.0671H17.0689H17.0707H17.0725H17.0742H17.076H17.0778H17.0796H17.0814H17.0831H17.0849H17.0867H17.0885H17.0903H17.0921H17.0938H17.0954V5.78728C17.0735 5.79789 17.0477 5.81021 17.0177 5.82445C17.0127 5.82677 17.0076 5.82919 17.0023 5.83169C16.8474 5.90477 16.5247 6.05703 16.2635 6.34355C16.1869 6.42759 16.1201 6.51729 16.063 6.61213H15.7998V7.61213V15.8743C15.7998 16.9415 16.0029 18.0011 16.3349 19.0365Z" fill="#5690FF" stroke="#5271FF" stroke-width="2"/>
<path d="M10.153 49.716H16.0429C15.3217 50.5314 14.2694 51.0444 13.0988 51.0444C11.9267 51.0444 10.8744 50.5317 10.153 49.716ZM13.0988 43.1761C14.2693 43.1761 15.3219 43.689 16.0433 44.5045H10.1533C10.875 43.6891 11.9274 43.1761 13.0988 43.1761Z" fill="#5690FF" stroke="#5271FF" stroke-width="2"/>
</svg>
