<svg width="50" height="90" viewBox="0 0 50 90" fill="none" xmlns="http://www.w3.org/2000/svg">
<path d="M26.5507 81.2269H26.3672H25.4891C25.0132 84.0456 22.5598 86.1922 19.6055 86.1922C16.6525 86.1922 14.1995 84.0455 13.7236 81.2269H8.01977H7.01977V80.2269V65.1213V64.1213H8.01977H26.2344C25.7698 60.6291 24.67 54.6972 22.164 48.8482C18.1322 39.444 16.4554 30.7017 16.4554 19.8207V10.8387V10.7226L16.482 10.6096C16.5711 10.2308 16.7809 9.96113 17.0102 9.77916C17.0942 9.71251 17.1851 9.65592 17.2636 9.61185V7.597H16.4618H15.4618V6.597V5.517V4.517H16.4618H17.6479V2.8692C17.6479 1.83679 16.8115 1 15.7778 1H12.4676C11.4368 1 10.5993 1.83658 10.5993 2.8692V4.517H11.9393H12.9393V5.517V6.5979V7.5979H11.9393H10.9836V9.60308C11.109 9.67136 11.2794 9.78078 11.4282 9.94371C11.6963 10.2373 11.8192 10.6067 11.8179 11.0028M26.5507 81.2269L10.8179 11.0007M26.5507 81.2269V89H15.3035H12.986H1.73877L1.73877 67.1584M26.5507 81.2269L0.73877 67.158M11.8179 11.0028C11.8179 11.0037 11.8179 11.0047 11.8179 11.0057L10.8179 11.0007M11.8179 11.0028V11.0007H10.8179M11.8179 11.0028V11.0202V11.0396V11.0591V11.0786V11.0981V11.1176V11.1371V11.1567V11.1762V11.1958V11.2154V11.235V11.2546V11.2742V11.2938V11.3135V11.3331V11.3528V11.3725V11.3922V11.4119V11.4316V11.4513V11.471V11.4908V11.5105V11.5303V11.5501V11.5699V11.5897V11.6095V11.6294V11.6492V11.6691V11.6889V11.7088V11.7287V11.7486V11.7685V11.7884V11.8084V11.8283V11.8483V11.8682V11.8882V11.9082V11.9282V11.9482V11.9682V11.9883V12.0083V12.0284V12.0484V12.0685V12.0886V12.1087V12.1288V12.1489V12.1691V12.1892V12.2093V12.2295V12.2497V12.2699V12.2901V12.3103V12.3305V12.3507V12.3709V12.3912V12.4114V12.4317V12.452V12.4723V12.4926V12.5129V12.5332V12.5535V12.5739V12.5942V12.6146V12.6349V12.6553V12.6757V12.6961V12.7165V12.7369V12.7573V12.7778V12.7982V12.8187V12.8391V12.8596V12.8801V12.9006V12.9211V12.9416V12.9621V12.9826V13.0032V13.0237V13.0443V13.0649V13.0854V13.106V13.1266V13.1472V13.1678V13.1884V13.2091V13.2297V13.2504V13.271V13.2917V13.3123V13.333V13.3537V13.3744V13.3951V13.4158V13.4366V13.4573V13.478V13.4988V13.5195V13.5403V13.5611V13.5819V13.6027V13.6235V13.6443V13.6651V13.6859V13.7067V13.7276V13.7484V13.7693V13.7901V13.811V13.8319V13.8528V13.8737V13.8946V13.9155V13.9364V13.9573V13.9783V13.9992V14.0202V14.0411V14.0621V14.0831V14.104V14.125V14.146V14.167V14.188V14.209V14.2301V14.2511V14.2721V14.2932V14.3142V14.3353V14.3563V14.3774V14.3985V14.4196V14.4407V14.4618V14.4829V14.504V14.5251V14.5462V14.5674V14.5885V14.6096V14.6308V14.652V14.6731V14.6943V14.7155V14.7366V14.7578V14.779V14.8002V14.8214V14.8427V14.8639V14.8851V14.9063V14.9276V14.9488V14.9701V14.9913V15.0126V15.0339V15.0551V15.0764V15.0977V15.119V15.1403V15.1616V15.1829V15.2042V15.2256V15.2469V15.2682V15.2895V15.3109V15.3322V15.3536V15.3749V15.3963V15.4177V15.4391V15.4604V15.4818V15.5032V15.5246V15.546V15.5674V15.5888V15.6102V15.6316V15.6531V15.6745V15.6959V15.7174V15.7388V15.7603V15.7817V15.8032V15.8246V15.8461V15.8676V15.889V15.9105V15.932V15.9535V15.975V15.9965V16.018V16.0395V16.061V16.0825V16.104V16.1256V16.1471V16.1686V16.1901V16.2117V16.2332V16.2548V16.2763V16.2979V16.3194V16.341V16.3626V16.3841V16.4057V16.4273V16.4489V16.4704V16.492V16.5136V16.5352V16.5568V16.5784V16.6V16.6216V16.6432V16.6648V16.6864V16.7081V16.7297V16.7513V16.7729V16.7946V16.8162V16.8378V16.8595V16.8811V16.9028V16.9244V16.9461V16.9677V16.9894V17.011V17.0327V17.0544V17.076V17.0977V17.1194V17.141V17.1627V17.1844V17.2061V17.2278V17.2495V17.2711V17.2928V17.3145V17.3362V17.3579V17.3796V17.4013V17.423V17.4447V17.4664V17.4881V17.5099V17.5316V17.5533V17.575V17.5967V17.6184V17.6402V17.6619V17.6836V17.7053V17.7271V17.7488V17.7705V17.7922V17.814V17.8357V17.8575V17.8792V17.9009V17.9227V17.9444V17.9661V17.9879V18.0096V18.0314V18.0531V18.0749V18.0966V18.1184V18.1401V18.1619V18.1836V18.2054V18.2271V18.2489V18.2706V18.2924V18.3141V18.3359V18.3576V18.3794V18.4012V18.4229V18.4447V18.4664V18.4882V18.5099V18.5317V18.5535V18.5752V18.597V18.6187V18.6405V18.6623V18.684V18.7058V18.7275V18.7493V18.7711V18.7928V18.8146V18.8363V18.8581V18.8798V18.9016V18.9234V18.9451V18.9669V18.9886V19.0104V19.0321V19.0539V19.0756V19.0974V19.1191V19.1409V19.1626V19.1844V19.2061V19.2279V19.2496V19.2714V19.2931V19.3149V19.3366V19.3583V19.3801V19.4018V19.4236V19.4453V19.467V19.4888V19.5105V19.5322V19.554V19.5757V19.5974V19.6191V19.6409V19.6626V19.6843V19.706V19.7277V19.7495V19.7712V19.7929V19.8146V19.8363V19.858V19.8797V19.9014V19.9231V19.9448V19.9665V19.9882V20.0099V20.0316V20.0533V20.0749V20.0966V20.1183V20.14V20.1617V20.1833V20.205V20.2267V20.2483V20.27V20.2917V20.3133V20.335V20.3566V20.3783V20.3999V20.4216V20.4432V20.4648V20.4865V20.5081V20.5297V20.5514V20.573V20.5946V20.6162V20.6378V20.6595V20.6811V20.7027V20.7243V20.7459V20.7675V20.7891V20.8106V20.8322V20.8538V20.8754V20.897V20.9185V20.9401V20.9617V20.9832V21.0048V21.0263V21.0479V21.0694V21.0909V21.1125V21.134V21.1555V21.1771V21.1986V21.2201V21.2416V21.2631V21.2846V21.3061V21.3276V21.3491V21.3706V21.3921V21.4135V21.435V21.4565V21.4779V21.4994V21.5209V21.5423V21.5638V21.5852V21.6066V21.6281V21.6495V21.6709V21.6923V21.7137V21.7351V21.7565V21.7779V21.7993V21.8207V21.8421V21.8508L11.8177 21.8596C11.644 31.8082 10.1426 40.1441 6.1153 48.874C3.92893 53.6144 2.83295 58.1975 2.28458 61.5989C2.01067 63.2979 1.87415 64.6974 1.80614 65.668C1.77215 66.1532 1.7553 66.5308 1.74696 66.7846C1.74278 66.9115 1.74074 67.0074 1.73973 67.0703C1.73923 67.1018 1.73899 67.125 1.73888 67.1397L1.73878 67.1553L1.73877 67.1583L1.73877 67.1584M10.8179 11.0007V21.8421C10.646 31.6863 9.16367 39.879 5.20727 48.4551C0.73877 58.1436 0.73877 67.158 0.73877 67.158M1.73877 67.1584L1.73877 67.158H0.73877M1.73877 67.1584C1.73877 67.1582 1.73877 67.158 0.73877 67.158" fill="#5690FF" stroke="#5271FF" stroke-width="2"/>
<path d="M38.59 41.7627C38.59 41.5459 38.7657 41.3702 38.9825 41.3702C39.1993 41.3702 39.375 41.5459 39.375 41.7627C39.375 41.9795 39.1993 42.1552 38.9825 42.1552C38.7657 42.1552 38.59 41.9795 38.59 41.7627Z" fill="#5690FF" stroke="#5271FF" stroke-width="2"/>
<path d="M45.7882 44.2647C45.0322 44.415 44.2816 44.496 43.5256 44.496C42.4411 44.496 41.3422 44.3457 40.2037 44.0505C39.8501 43.9491 39.488 43.8336 39.113 43.714C39.0652 43.6987 39.0172 43.6834 38.9689 43.668C38.163 43.4086 37.3222 43.145 36.4901 42.9728L45.7882 44.2647ZM45.7882 44.2647L46.5761 44.0936L45.7882 44.2647ZM43.4554 88.7786H37.9179C39.213 87.898 40.2684 86.5792 40.6861 84.7265C41.1038 86.5794 42.1598 87.8982 43.4554 88.7786ZM40.6834 65.8085C40.6781 65.8413 40.6729 65.874 40.6678 65.9068C40.6582 65.8466 40.6481 65.7863 40.6374 65.7261C40.5449 65.2044 40.4044 64.6339 40.1803 64.1388C40.0555 63.8628 39.8745 63.5432 39.6102 63.274L39.8632 62.0506C37.8858 61.5404 36.9454 60.2724 36.4719 59.0942C36.2307 58.4941 36.1143 57.9206 36.0592 57.4954C36.0433 57.3734 36.0327 57.265 36.0256 57.1732L36.0326 57.1649L36.0201 56.7843C36.0191 56.754 36.0175 56.7274 36.0161 56.707C36.0151 56.6928 36.0138 56.6764 36.013 56.6666L36.0125 56.6604C36.0124 56.6589 36.0123 56.6576 36.0122 56.6563L36.4546 43.9878C36.6466 44.0304 36.8406 44.0783 37.0364 44.1303C36.6937 44.4251 36.4767 44.8618 36.4767 45.3501C36.4767 46.24 37.1982 46.9576 38.086 46.9576C38.109 46.9576 38.1319 46.9571 38.1546 46.9562C37.791 47.2505 37.5576 47.7 37.5576 48.2058C37.5576 49.0957 38.2809 49.8151 39.1687 49.8151C40.0564 49.8151 40.773 49.0947 40.7753 48.2085V48.2058C40.7753 47.3188 40.055 46.5974 39.1687 46.5974C39.1451 46.5974 39.1216 46.5979 39.0981 46.5989C39.4612 46.3039 39.6926 45.8536 39.6926 45.3501C39.6926 45.2034 39.673 45.0611 39.636 44.9257C39.7338 44.9552 39.8313 44.984 39.9282 45.0118L39.9404 45.0153L39.9528 45.0185C41.1637 45.3325 42.3472 45.496 43.5256 45.496C44.3538 45.496 45.17 45.4072 45.9832 45.2455L45.9919 45.2438L46.0005 45.2419L46.6116 45.1092L47.0139 56.6179C47.0067 59.4389 45.1977 61.8877 42.4828 62.7228L42.4441 62.7347L42.4064 62.7498C41.718 63.0243 41.3433 63.6546 41.1343 64.1406C40.9097 64.6629 40.772 65.2646 40.6834 65.8085ZM48.0139 56.601L47.6047 44.8936L42.7768 63.6786C45.916 62.7129 48.0139 59.8689 48.0139 56.601ZM39.8789 51.5259V51.5232C39.8789 50.6352 39.1576 49.9157 38.2705 49.9157C37.3855 49.9157 36.6612 50.6332 36.6612 51.5232C36.6612 52.4131 37.3835 53.1325 38.2705 53.1325C39.1619 53.1325 39.8766 52.4093 39.8789 51.5259Z" fill="#5690FF" stroke="#5271FF" stroke-width="2"/>
</svg>
