<svg width="54" height="80" viewBox="0 0 54 80" fill="none" xmlns="http://www.w3.org/2000/svg">
<path d="M1.99082 49.0516L1.99672 49.0162L2.00006 48.9805L2.45258 44.1536C2.45261 44.1534 2.45263 44.1531 2.45265 44.1529C2.61143 42.4849 2.56944 40.0784 2.33912 37.7369C2.11274 35.4354 1.69283 33.0703 1.03889 31.4924C1.00803 31.3876 0.994771 31.2703 1.00186 31.1781C1.00305 31.1627 1.0047 31.1496 1.00645 31.1389C1.09122 31.061 1.18522 30.9914 1.27581 30.942C1.38825 30.8807 1.44859 30.8755 1.45709 30.8755H18.0546C18.1729 30.8755 18.2517 30.8955 18.3009 30.9179C18.3416 30.9364 18.3841 30.9655 18.4296 31.0337C18.4904 31.1249 18.5061 31.1899 18.5103 31.2411C18.5151 31.2981 18.5086 31.3824 18.468 31.5084C17.8962 33.0698 17.5124 35.4319 17.3038 37.745C17.0932 40.0807 17.0512 42.4854 17.2099 44.1526C17.2099 44.153 17.21 44.1533 17.21 44.1536L17.6625 48.9805L17.6659 49.0162L17.6718 49.0516C17.806 49.8571 17.809 50.676 17.809 51.4352C17.6595 55.7991 16.9197 59.2618 15.7217 61.7283C14.5284 64.185 12.9242 65.5795 11.0375 66.0197L10.2647 66.2V66.9936V76.9521V77.9521H11.2647H15.6404C15.6924 77.9521 15.8281 77.9881 15.9707 78.1307C16.1132 78.2733 16.1493 78.4089 16.1493 78.4609C16.1493 78.5129 16.1132 78.6486 15.9707 78.7912C15.8281 78.9337 15.6924 78.9698 15.6404 78.9698H4.02216C3.97017 78.9698 3.83449 78.9337 3.69192 78.7912C3.54935 78.6486 3.51329 78.5129 3.51329 78.4609C3.51329 78.4089 3.54935 78.2733 3.69192 78.1307C3.83449 77.9881 3.97017 77.9521 4.02216 77.9521H8.39787H9.39787V76.9521V66.9936V66.2L8.6251 66.0197C6.73841 65.5795 5.13416 64.185 3.94091 61.7283C2.74289 59.2618 2.00307 55.7991 1.85354 51.4352C1.85358 50.676 1.85656 49.8571 1.99082 49.0516ZM4.15161 35.9358L4.02238 36.0054L3.9186 36.1092L3.76771 36.26L3.42188 36.6059L3.48254 37.0912C3.49963 37.2279 3.51653 37.3615 3.53308 37.4923C3.66636 38.5455 3.77659 39.4166 3.77659 40.2867V41.8254L5.18273 41.2005L6.54071 40.5969L6.56147 40.5877L6.58178 40.5775C6.87582 40.4305 7.10932 40.4104 7.27594 40.4406C7.43462 40.4695 7.60446 40.5562 7.76788 40.7605L7.80248 40.8037L7.84165 40.8429C9.06149 42.0627 10.6657 42.7955 12.3209 42.7955C13.6321 42.7955 15.0616 42.2468 16.1297 41.3567L16.1646 41.3276L16.1966 41.2955L16.3475 41.1446L16.6404 40.8518V40.4375C16.6404 39.1411 16.7851 37.6822 16.9361 36.3232L17.2056 33.8978L15.3116 35.4366L12.8974 37.3981L12.8974 37.3981L12.8878 37.406C12.4239 37.7926 11.8075 37.7432 11.3821 37.3299C9.60584 35.3944 6.5641 34.6368 4.15161 35.9358Z" fill="#5690FF" stroke="#5271FF" stroke-width="2"/>
<path d="M33.6859 68.3194C33.728 68.3054 33.751 68.2984 33.7619 68.2953H33.8751L33.9993 68.2629C35.1607 67.9599 36.0908 67.1722 36.8194 66.1766C37.548 65.1812 38.1219 63.9171 38.566 62.5258C39.4545 59.7416 39.877 56.2762 39.877 52.9611C39.877 49.6459 39.4545 46.1806 38.566 43.3964C38.1219 42.005 37.548 40.741 36.8194 39.7455C36.1115 38.7783 35.2136 38.0073 34.098 37.6863C33.9153 37.6024 33.734 37.5418 33.534 37.5084C33.3368 37.4756 33.1485 37.4758 33.0176 37.476C33.0089 37.476 33.0005 37.476 32.9924 37.476C31.6529 37.476 30.5428 38.1311 29.6743 39.097C28.818 40.0493 28.1502 41.3482 27.6362 42.8011C26.6063 45.7126 26.1078 49.4921 26.1078 53.112C26.1078 56.65 26.5671 60.3563 27.5798 63.2157C28.0854 64.6434 28.751 65.9235 29.6207 66.8621C30.223 67.5123 30.9374 68.0109 31.7603 68.2633L27.095 67.6628L24.9392 67.3394V34.0441H41.1965V69.4778L33.1371 68.4405C33.3819 68.4213 33.5699 68.3583 33.6707 68.3245C33.676 68.3227 33.681 68.321 33.6859 68.3194Z" fill="#5690FF" stroke="#5271FF" stroke-width="2"/>
<path d="M26.8086 72.66L26.8189 72.6615L26.8293 72.6629L41.1965 74.5121V76.8012V78.6861L25.4637 76.7195C25.0902 76.633 24.9392 76.3687 24.9392 76.1976V72.3796L26.8086 72.66Z" fill="#5690FF" stroke="#5271FF" stroke-width="2"/>
<path d="M50.5006 65.9482L50.4913 65.9529L50.482 65.9577L46.2141 68.204V34.0441H50.9478H52.9655V64.7157L50.5006 65.9482Z" fill="#5690FF" stroke="#5271FF" stroke-width="2"/>
<path d="M46.2141 75.8959V73.7836L51.4043 71.052L52.9655 70.2714V73.7835C52.9655 73.9872 52.8879 74.1432 52.692 74.2847L46.2141 77.707V75.8959Z" fill="#5690FF" stroke="#5271FF" stroke-width="2"/>
<path d="M44.9595 29.0264L44.8752 28.9139H44.9122H49.0176L49.2103 29.0264H46.8737H44.9595Z" fill="#5690FF" stroke="#5271FF" stroke-width="2"/>
<path d="M34.243 11.4529L34.2205 11.3854L34.1887 11.3219C33.6465 10.2374 33.6712 8.95298 33.6865 8.16113C33.6887 8.04472 33.6907 7.93895 33.6907 7.84603V1.96146C33.6907 1.65038 33.8388 1.48666 34.0871 1.43459C37.2804 0.855283 40.6308 0.853362 44.1446 1.43899L44.2262 1.4526H44.309H44.4497C44.5237 1.48736 44.6087 1.54671 44.6814 1.63149C44.7775 1.74357 44.8179 1.85888 44.8179 1.96146V7.84603C44.8179 8.45852 44.8088 10.0628 44.2992 11.364C43.9981 11.9867 43.944 12.5672 43.9711 13.0008C43.9848 13.2211 44.0195 13.4044 44.0532 13.5393C44.0701 13.6071 44.0871 13.6634 44.1014 13.7071C44.1083 13.7282 44.1147 13.7464 44.1202 13.7616C45.5381 18.0241 45.5732 21.5736 45.2664 23.8962H33.0852C32.789 21.7059 32.8255 18.2177 34.2002 14.0253C34.287 13.8754 34.3343 13.7307 34.3611 13.638C34.4158 13.4485 34.4493 13.2367 34.4623 13.016C34.4884 12.5722 34.4353 12.0298 34.243 11.4529ZM43.4984 6.0354V5.15988L42.6305 5.04417C40.2769 4.73035 37.9273 4.7314 35.4335 5.04312L34.5576 5.15261V6.0354V7.84603V7.8478V7.84958V7.85135V7.85313V7.85492V7.85671V7.8585V7.86029V7.86209V7.86389V7.86569V7.8675V7.86931V7.87112V7.87294V7.87476V7.87659V7.87841V7.88025V7.88208V7.88392V7.88576V7.8876V7.88945V7.8913V7.89315V7.89501V7.89687V7.89874V7.9006V7.90247V7.90435V7.90622V7.9081V7.90999V7.91187V7.91376V7.91566V7.91755V7.91945V7.92136V7.92326V7.92517V7.92708V7.929V7.93092V7.93284V7.93476V7.93669V7.93862V7.94055V7.94249V7.94443V7.94638V7.94832V7.95027V7.95222V7.95418V7.95614V7.9581V7.96006V7.96203V7.964V7.96598V7.96795V7.96993V7.97192V7.9739V7.97589V7.97788V7.97988V7.98188V7.98388V7.98588V7.98789V7.9899V7.99191V7.99393V7.99594V7.99797V7.99999V8.00202V8.00405V8.00608V8.00812V8.01016V8.0122V8.01424V8.01629V8.01834V8.02039V8.02245V8.02451V8.02657V8.02863V8.0307V8.03277V8.03484V8.03692V8.039V8.04108V8.04316V8.04525V8.04734V8.04943V8.05153V8.05362V8.05572V8.05783V8.05993V8.06204V8.06415V8.06627V8.06838V8.0705V8.07263V8.07475V8.07688V8.07901V8.08114V8.08328V8.08541V8.08755V8.0897V8.09184V8.09399V8.09614V8.0983V8.10045V8.10261V8.10477V8.10694V8.10911V8.11127V8.11345V8.11562V8.1178V8.11998V8.12216V8.12434V8.12653V8.12872V8.13091V8.1331V8.1353V8.1375V8.1397V8.14191V8.14411V8.14632V8.14853V8.15075V8.15296V8.15518V8.1574V8.15963V8.16185V8.16408V8.16631V8.16855V8.17078V8.17302V8.17526V8.1775V8.17975V8.182V8.18425V8.1865V8.18875V8.19101V8.19327V8.19553V8.19779V8.20006V8.20233V8.2046V8.20687V8.20914V8.21142V8.2137V8.21598V8.21827V8.22055V8.22284V8.22513V8.22742V8.22972V8.23202V8.23432V8.23662V8.23892V8.24123V8.24354V8.24584V8.24816V8.25047V8.25279V8.25511V8.25743V8.25975V8.26208V8.2644V8.26673V8.26906V8.2714V8.27373V8.27607V8.27841V8.28075V8.2831V8.28544V8.28779V8.29014V8.29249V8.29484V8.2972V8.29956V8.30192V8.30428V8.30664V8.30901V8.31138V8.31375V8.31612V8.31849V8.32087V8.32324V8.32562V8.328V8.33039V8.33277V8.33516V8.33755V8.33994V8.34233V8.34473V8.34712V8.34952V8.35192V8.35432V8.35673V8.35913V8.36154V8.36395V8.36636V8.36877V8.37119V8.3736V8.37602V8.37844V8.38086V8.38329V8.38571V8.38814V8.39057V8.393V8.39543V8.39786V8.4003V8.40274V8.40518V8.40762V8.41006V8.4125V8.41495V8.4174V8.41984V8.4223V8.42475V8.4272V8.42966V8.43211V8.43457V8.43703V8.4395V8.44196V8.44442V8.44689V8.44936V8.45183V8.4543V8.45677V8.45925V8.46173V8.4642V8.46668V8.46916V8.47165V8.47413V8.47661V8.4791V8.48159V8.48408V8.48657V8.48906V8.49156V8.49405V8.49655V8.49905V8.50155V8.50405V8.50655V8.50906V8.51156V8.51407V8.51658V8.51909V8.5216V8.52411V8.52663V8.52914V8.53166V8.53418V8.5367V8.53922V8.54174V8.54426V8.54679V8.54931V8.55184V8.55437V8.5569V8.55943V8.56196V8.5645V8.56703V8.56957V8.57211V8.57465V8.57718V8.57973V8.58227V8.58481V8.58736V8.5899V8.59245V8.595V8.59755V8.6001V8.60265V8.6052V8.60776V8.61031V8.61287V8.61543V8.61799V8.62055V8.62311V8.62567V8.62823V8.6308V8.63336V8.63593V8.6385V8.64107V8.64363V8.64621V8.64878V8.65135V8.65392V8.6565V8.65907V8.66165V8.66423V8.66681V8.66939V8.67197V8.67455V8.67713V8.67972V8.6823V8.68489V8.68748V8.69006V8.69265V8.69524V8.69783V8.70042V8.70302V8.70561V8.7082V8.7108V8.71339V8.71599V8.71859V8.72118V8.72378V8.72638V8.72898V8.73159V8.73419V8.73679V8.7394V8.742V8.74461V8.74721V8.74982V8.75243V8.75504V8.75765V8.76026V8.76287V8.76548V8.76809V8.77071V8.77332V8.77594V8.77855V8.78117V8.78378V8.7864V8.78902V8.79164V8.79426V8.79688V8.7995V8.80212V8.80474V8.80737V8.80999V8.81261V8.81524V8.81786V8.82049V8.82312V8.82574V8.82837V8.831V8.83363V8.83626V8.83889V8.84152V8.84415V8.84678V8.84941V8.85205V8.85468V8.85731V8.85995V8.86258V8.86522V8.86785V8.87049V8.87312V8.87576V8.8784V8.88104V8.88367V8.88631V8.88895V8.89159V8.89423V8.89687V8.89951V8.90215V8.90479V8.90744V8.91008V8.91272V8.91536V8.91801V8.92065V8.9233V8.92594V8.92859V8.93123V8.93388V8.93652V8.93917V8.94181V8.94446V8.94711V8.94975V8.9524V8.95505V8.9577V8.96034V8.96299V8.96564V8.96829V8.97094V8.97359V8.97624V8.97889V8.98154V8.98419V8.98684V8.98949V8.99214V8.99479V8.99744V9.00009V9.00274V9.00539V9.00804V9.01069V9.01335V9.016V9.01865V9.0213V9.02395V9.0266V9.02926V9.03191V9.03456V9.03721V9.03986V9.04252V9.04517V9.04782V9.05047V9.05313V10.1953L35.6897 10.0444C37.8653 9.75428 40.1906 9.75428 42.3662 10.0444L43.4984 10.1953V9.05313V9.04959V9.04606V9.04253V9.03901V9.03549V9.03197V9.02846V9.02495V9.02144V9.01794V9.01444V9.01094V9.00745V9.00396V9.00047V8.99699V8.99351V8.99004V8.98657V8.9831V8.97963V8.97617V8.97272V8.96926V8.96581V8.96237V8.95892V8.95549V8.95205V8.94862V8.94519V8.94177V8.93835V8.93493V8.93152V8.92811V8.9247V8.9213V8.9179V8.91451V8.91111V8.90773V8.90434V8.90096V8.89759V8.89421V8.89085V8.88748V8.88412V8.88076V8.87741V8.87406V8.87072V8.86737V8.86403V8.8607V8.85737V8.85404V8.85072V8.8474V8.84409V8.84077V8.83747V8.83416V8.83086V8.82757V8.82428V8.82099V8.81771V8.81442V8.81115V8.80788V8.80461V8.80134V8.79808V8.79483V8.79157V8.78833V8.78508V8.78184V8.7786V8.77537V8.77214V8.76892V8.7657V8.76248V8.75927V8.75606V8.75286V8.74966V8.74646V8.74327V8.74008V8.7369V8.73372V8.73054V8.72737V8.7242V8.72104V8.71788V8.71472V8.71157V8.70842V8.70528V8.70214V8.69901V8.69588V8.69275V8.68963V8.68651V8.6834V8.68029V8.67718V8.67408V8.67099V8.66789V8.66481V8.66172V8.65864V8.65557V8.65249V8.64943V8.64637V8.64331V8.64025V8.6372V8.63416V8.63112V8.62808V8.62505V8.62202V8.61899V8.61597V8.61296V8.60995V8.60694V8.60394V8.60094V8.59795V8.59496V8.59197V8.58899V8.58602V8.58305V8.58008V8.57712V8.57416V8.57121V8.56826V8.56531V8.56237V8.55944V8.55651V8.55358V8.55066V8.54774V8.54482V8.54192V8.53901V8.53611V8.53322V8.53033V8.52744V8.52456V8.52168V8.51881V8.51594V8.51308V8.51022V8.50736V8.50451V8.50167V8.49883V8.49599V8.49316V8.49034V8.48751V8.4847V8.48188V8.47908V8.47627V8.47348V8.47068V8.46789V8.46511V8.46233V8.45955V8.45678V8.45402V8.45126V8.4485V8.44575V8.443V8.44026V8.43752V8.43479V8.43206V8.42934V8.42662V8.42391V8.4212V8.4185V8.4158V8.41311V8.41042V8.40773V8.40505V8.40238V8.39971V8.39704V8.39438V8.39173V8.38908V8.38643V8.38379V8.38116V8.37853V8.3759V8.37328V8.37066V8.36805V8.36545V8.36285V8.36025V8.35766V8.35507V8.35249V8.34991V8.34734V8.34478V8.34222V8.33966V8.33711V8.33456V8.33202V8.32949V8.32695V8.32443V8.32191V8.31939V8.31688V8.31437V8.31187V8.30938V8.30689V8.3044V8.30192V8.29945V8.29698V8.29451V8.29205V8.2896V8.28715V8.28471V8.28227V8.27983V8.2774V8.27498V8.27256V8.27015V8.26774V8.26534V8.26294V8.26055V8.25816V8.25578V8.2534V8.25103V8.24867V8.24631V8.24395V8.2416V8.23925V8.23692V8.23458V8.23225V8.22993V8.22761V8.2253V8.22299V8.22069V8.21839V8.2161V8.21381V8.21153V8.20926V8.20699V8.20472V8.20246V8.20021V8.19796V8.19572V8.19348V8.19125V8.18902V8.1868V8.18458V8.18237V8.18017V8.17797V8.17577V8.17358V8.1714V8.16922V8.16705V8.16488V8.16272V8.16057V8.15842V8.15627V8.15413V8.152V8.14987V8.14775V8.14563V8.14352V8.14142V8.13932V8.13722V8.13513V8.13305V8.13097V8.1289V8.12684V8.12478V8.12272V8.12067V8.11863V8.11659V8.11456V8.11253V8.11051V8.10849V8.10649V8.10448V8.10248V8.10049V8.0985V8.09652V8.09455V8.09258V8.09061V8.08866V8.0867V8.08476V8.08282V8.08088V8.07895V8.07703V8.07511V8.0732V8.0713V8.0694V8.0675V8.06561V8.06373V8.06185V8.05998V8.05812V8.05626V8.05441V8.05256V8.05072V8.04888V8.04705V8.04523V8.04341V8.0416V8.03979V8.03799V8.0362V8.03441V8.03263V8.03085V8.02908V8.02732V8.02556V8.02381V8.02206V8.02032V8.01859V8.01686V8.01514V8.01342V8.01171V8.01001V8.00831V8.00662V8.00493V8.00325V8.00158V7.99991V7.99825V7.9966V7.99495V7.99331V7.99167V7.99004V7.98841V7.98679V7.98518V7.98358V7.98198V7.98038V7.9788V7.97721V7.97564V7.97407V7.97251V7.97095V7.9694V7.96785V7.96632V7.96479V7.96326V7.96174V7.96023V7.95872V7.95722V7.95573V7.95424V7.95276V7.95128V7.94981V7.94835V7.94689V7.94544V7.944V7.94256V7.94113V7.93971V7.93829V7.93688V7.93547V7.93407V7.93268V7.93129V7.92991V7.92854V7.92717V7.92581V7.92446V7.92311V7.92177V7.92043V7.91911V7.91778V7.91647V7.91516V7.91386V7.91256V7.91127V7.90999V7.90871V7.90744V7.90618V7.90492V7.90367V7.90242V7.90119V7.89996V7.89873V7.89751V7.8963V7.8951V7.8939V7.89271V7.89152V7.89035V7.88917V7.88801V7.88685V7.8857V7.88455V7.88342V7.88229V7.88116V7.88004V7.87893V7.87782V7.87673V7.87563V7.87455V7.87347V7.8724V7.87134V7.87028V7.86923V7.86818V7.86714V7.86611V7.86509V7.86407V7.86306V7.86206V7.86106V7.86007V7.85909V7.85811V7.85714V7.85618V7.85522V7.85427V7.85333V7.85239V7.85146V7.85054V7.84963V7.84872V7.84782V7.84692V7.84603V6.0354Z" fill="#5690FF" stroke="#5271FF" stroke-width="2"/>
<path d="M34.8589 52.961C34.8589 56.566 34.3435 59.2889 33.7579 61.0812C33.5102 61.8393 33.2557 62.4132 33.0335 62.8109C32.806 62.3906 32.5412 61.7883 32.2819 61.0029C31.676 59.1674 31.1252 56.4069 31.1252 52.8101C31.1252 49.2051 31.6407 46.4823 32.2263 44.6899C32.4864 43.8937 32.7541 43.3006 32.984 42.9016C33.2183 43.3158 33.4913 43.9334 33.7561 44.7599C34.3435 46.5933 34.8589 49.3561 34.8589 52.961ZM32.623 63.3856C32.623 63.385 32.629 63.3796 32.6406 63.3717C32.6287 63.3823 32.6229 63.3863 32.623 63.3856ZM33.4341 63.4128C33.4349 63.4134 33.4353 63.4138 33.4352 63.4137L33.4341 63.4128ZM33.3612 42.3855C33.3611 42.3862 33.3552 42.3915 33.3436 42.3995C33.3554 42.3888 33.3613 42.3849 33.3612 42.3855ZM32.6278 42.3936C32.6152 42.3847 32.6088 42.3788 32.6088 42.378C32.6087 42.3773 32.615 42.3817 32.6278 42.3936Z" fill="#5690FF" stroke="#5271FF" stroke-width="2"/>
<path d="M34.803 28.9139H38.6032L38.6875 29.0264H31.1817H28.8277L29.0285 28.9139H33.2941H34.803Z" fill="#5690FF" stroke="#5271FF" stroke-width="2"/>
</svg>
