<svg width="34" height="30" viewBox="0 0 34 30" fill="none" xmlns="http://www.w3.org/2000/svg">
<path d="M33.3738 6.87021L29.787 16.3439C29.5536 16.9601 28.9589 17.3684 28.2943 17.3684H12.0728L12.7001 19.4076C12.9056 20.0768 13.5189 20.5263 14.2249 20.5263H28.6943V23.6842H14.2249C12.1062 23.6842 10.2676 22.3358 9.65038 20.3282L4.68897 4.1987C4.48425 3.59195 3.87633 3.15789 3.18902 3.15789H0V0H3.18902C5.25018 0 7.07393 1.3014 7.72622 3.23885L8.18702 4.73684H31.8811C32.9942 4.73684 33.7646 5.83798 33.3738 6.87021ZM11.956 25.2632C10.6353 25.2632 9.56476 26.3235 9.56476 27.6316C9.56476 28.9396 10.6353 30 11.956 30C13.2766 30 14.3471 28.9396 14.3471 27.6316C14.3471 26.3235 13.2766 25.2632 11.956 25.2632ZM27.8972 25.2632C26.5766 25.2632 25.5061 26.3235 25.5061 27.6316C25.5061 28.9396 26.5766 30 27.8972 30C29.2179 30 30.2884 28.9396 30.2884 27.6316C30.2884 26.3235 29.2179 25.2632 27.8972 25.2632Z" fill="#383838"/>
</svg>
