<svg width="20" height="20" viewBox="0 0 20 20" fill="none" xmlns="http://www.w3.org/2000/svg">
<path d="M19.4666 17.8625L14.0807 12.4766C13.609 13.1763 12.9999 13.7728 12.2905 14.2299L17.6949 19.6342C17.93 19.8687 18.2485 20.0002 18.5804 20C18.9124 19.9998 19.2307 19.8678 19.4655 19.6331C19.7002 19.3983 19.8322 19.08 19.8324 18.748C19.8326 18.4161 19.7011 18.0976 19.4666 17.8625Z" fill="#383838"/>
<path d="M13.6279 11.5912C14.6541 10.0609 15.0764 8.20437 14.8131 6.38076C14.5498 4.55714 13.6195 2.89596 12.2023 1.7185C10.7851 0.541031 8.98159 -0.0690584 7.14059 0.00622109C5.2996 0.0815006 3.55193 0.8368 2.23558 2.12604C0.919225 3.41528 0.127729 5.14687 0.0141637 6.98589C-0.0994015 8.82492 0.473033 10.6407 1.62076 12.0821C2.76848 13.5235 4.40995 14.4881 6.22769 14.7893C8.04544 15.0906 9.9103 14.707 11.4616 13.7129C12.3201 13.1598 13.0572 12.4379 13.6279 11.5912ZM10.1821 12.4333C8.9702 13.0991 7.55798 13.3029 6.20734 13.0067C4.8567 12.7106 3.65929 11.9346 2.8372 10.8228C2.01511 9.71104 1.62412 8.33882 1.73676 6.96068C1.84939 5.58255 2.45801 4.29203 3.44972 3.32847C4.44144 2.36491 5.74895 1.79371 7.12975 1.7208C8.51056 1.64789 9.87095 2.07823 10.9586 2.932C12.0463 3.78576 12.7874 5.00502 13.0446 6.36363C13.3017 7.72224 13.0574 9.128 12.3569 10.3202C11.8375 11.2092 11.0856 11.9397 10.1821 12.4333Z" fill="#383838"/>
</svg>
