<svg width="13" height="13" viewBox="0 0 13 13" fill="none" xmlns="http://www.w3.org/2000/svg">
<path d="M2.73349 1.22478e-08C2.5674 1.22478e-08 2.34795 -0.00022158 2.07713 0.0589449C1.81251 0.118111 1.60369 0.177499 1.44978 0.236666C1.14198 0.413944 0.815351 0.768499 0.470565 1.41844C0.319984 1.6735 0.207492 1.94252 0.129101 2.21819C0.128437 2.22063 0.127551 2.22284 0.126887 2.22506C0.0976562 2.32899 0.079055 2.43447 0.0600109 2.54017C0.0513747 2.58759 0.0376452 2.63457 0.0312234 2.68221C0.0203727 2.76132 0.0190441 2.84154 0.0139509 2.92109C0.00974351 2.98757 0 3.05516 0 3.12075C0 3.12275 0 3.12452 0 3.12651C0 3.12851 0 3.13028 0 3.13228C0 3.30955 0.00930058 3.427 0.0276803 3.60428C0.0522604 3.78156 0.0923415 3.95906 0.147702 4.13633C0.203063 4.33356 0.246023 4.4807 0.276803 4.57953C0.304262 4.64822 0.367152 4.80755 0.427827 4.96378C0.445542 5.01031 0.450192 5.02915 0.470565 5.08145C0.562907 5.31789 0.618267 5.49561 0.636647 5.55456C0.754897 5.87897 0.888649 6.18101 1.03104 6.46975C1.14663 6.71373 1.26798 6.9484 1.4024 7.16446C1.71441 7.67103 2.10968 8.18469 2.56851 8.70988C2.82206 9.01059 3.09045 9.31639 3.38851 9.63194C3.94898 10.1817 4.49595 10.6458 5.03206 11.0389C5.30067 11.2423 5.56751 11.4331 5.83124 11.5964C6.1065 11.7684 6.41231 11.9248 6.73318 12.072C6.86804 12.1347 7.00688 12.1925 7.14949 12.245C7.2529 12.2862 7.3479 12.3337 7.45508 12.372C7.51066 12.3904 7.65172 12.4453 7.89797 12.5382C7.99031 12.5728 8.01954 12.5823 8.09173 12.6076C8.16547 12.6379 8.22924 12.6612 8.28195 12.6756C8.31671 12.6878 8.3909 12.7135 8.41459 12.723C8.44914 12.7339 8.52354 12.7542 8.57026 12.768C8.65596 12.8059 8.72793 12.8444 8.85393 12.8823C8.9465 12.8823 9.03286 12.897 9.11568 12.9169C9.13029 12.9207 9.14535 12.9249 9.15952 12.9284C9.23681 12.9495 9.31232 12.9736 9.38097 13H9.86991H9.87213C10.4384 13 11.0097 12.8526 11.5883 12.5384C12.2101 12.1927 12.5846 11.8681 12.7139 11.5596C12.7491 11.4801 12.781 11.3839 12.812 11.2746L12.8131 11.2711C12.8454 11.1676 12.8767 11.0499 12.9077 10.9318C12.969 10.6364 13 10.4594 13 10.2821C13 10.164 12.9907 10.1046 12.9723 10.0454C12.9677 10.0384 12.9331 10.0144 12.9227 10.0038C12.8738 9.94639 12.7965 9.88146 12.6771 9.80523C12.6754 9.80856 12.672 9.81233 12.6703 9.81565C12.5609 9.74363 12.4429 9.66696 12.2701 9.57211C12.1532 9.51295 11.9873 9.39484 11.7719 9.27672C11.5564 9.15861 11.3598 9.09945 11.1813 8.98133C11.0088 8.86322 10.8451 8.80406 10.691 8.68595C10.6662 8.68595 10.5896 8.62744 10.4603 8.50933C10.331 8.45017 10.2209 8.39078 10.1281 8.33161C10.042 8.27245 9.95605 8.27267 9.86969 8.27267C9.74679 8.27267 9.59266 8.33206 9.40842 8.50933C9.22352 8.68661 9.05323 8.92306 8.89977 9.10033C8.74565 9.33678 8.58311 9.51406 8.41083 9.69133C8.23854 9.86861 8.09682 9.928 7.98632 9.928C7.93074 9.928 7.85921 9.92711 7.77285 9.86795C7.69313 9.86795 7.63135 9.809 7.58839 9.809C7.54543 9.809 7.47147 9.75028 7.36695 9.69133C7.26243 9.63217 7.20397 9.57256 7.19157 9.57256C6.34831 9.09989 5.62508 8.5685 5.02209 7.9775C4.41911 7.3865 3.88321 6.61889 3.41553 5.79144C3.40933 5.79144 3.37257 5.73183 3.30481 5.61372C3.24325 5.49561 3.20029 5.43622 3.17571 5.37706C3.15733 5.37706 3.13275 5.31855 3.10197 5.20044C3.07118 5.14128 3.05591 5.08189 3.05591 5.02272C3.05591 4.90461 3.14183 4.72689 3.31433 4.54961C3.49281 4.37233 3.68325 4.25489 3.88631 4.07761C4.09558 3.9595 4.28713 3.78178 4.45963 3.6045C4.63811 3.36806 4.72713 3.25061 4.72713 3.1325C4.72713 3.01439 4.70565 2.95522 4.66247 2.83711C4.61929 2.77794 4.55175 2.65983 4.45941 2.54172C4.37327 2.36444 4.32101 2.30505 4.30263 2.30505C4.21029 2.12778 4.11396 1.95028 4.01542 1.773C3.91687 1.59572 3.80947 1.41844 3.69255 1.182C3.57563 1.00472 3.48351 0.827001 3.41575 0.708889C3.20029 0.295168 3.03753 0.059388 2.9268 0.000221593L2.73349 1.22478e-08Z" fill="#5271FF"/>
</svg>
