<svg width="34" height="35" viewBox="0 0 34 35" fill="none" xmlns="http://www.w3.org/2000/svg">
<path d="M22.2055 26.4723C22.2051 26.4723 22.2047 26.4723 22.2042 26.4723C19.0189 26.4704 15.3659 24.699 12.182 21.6125C12.1766 21.6073 12.1712 21.6019 12.1659 21.5966C9.06818 18.4243 7.29041 14.7845 7.28833 11.6107C7.28833 10.4422 7.88904 9.21318 8.97985 8.14951C9.73038 7.41777 10.8384 6.67932 11.6221 6.67932C12.8296 6.67932 13.1509 7.24829 13.6373 8.10952C13.7558 8.3194 13.8901 8.55727 14.0638 8.84499C14.16 9.0037 14.2926 9.20498 14.433 9.41801C15.325 10.772 15.8867 11.7189 15.5802 12.5107C15.3399 13.127 14.7042 13.6327 14.0894 14.1217C13.8619 14.3027 13.5356 14.5621 13.3911 14.7189C13.5027 15.3372 14.3157 16.646 15.7332 18.0583C17.1489 19.4688 18.4609 20.2785 19.083 20.3914C19.2398 20.2473 19.4983 19.9247 19.6788 19.6995C20.1715 19.0844 20.6811 18.4485 21.3014 18.2105C21.4445 18.1555 21.6013 18.1275 21.7672 18.1275C22.4752 18.1275 23.3071 18.6358 24.405 19.3538C24.6188 19.4936 24.8208 19.6257 24.9813 19.7223C25.2689 19.8947 25.5077 20.0286 25.7183 20.1466C26.5826 20.6313 27.1537 20.9514 27.1537 22.1544C27.1537 22.9349 26.4121 24.0387 25.6771 24.7865C24.6096 25.8725 23.3767 26.4713 22.2055 26.4723ZM13.3492 20.4337C16.1814 23.1761 19.4912 24.8144 22.2045 24.8165C23.8451 24.8145 25.4058 22.6942 25.4918 22.1397C25.4912 22.0264 25.4846 21.967 25.4798 21.9387C25.395 21.8654 25.1349 21.7196 24.9033 21.5898C24.6937 21.4722 24.4328 21.3259 24.1233 21.1404C23.9348 21.027 23.7202 20.8867 23.493 20.7381C23.0625 20.4565 22.1968 19.8905 21.8283 19.7958C21.601 19.9543 21.2023 20.4519 20.9775 20.7325C20.4074 21.444 19.9151 22.0585 19.2208 22.0609C17.5293 22.0592 15.2243 19.893 14.558 19.2292C13.8917 18.5653 11.7176 16.2687 11.7159 14.587C11.7159 13.8908 12.3353 13.3981 13.0525 12.8276C13.3327 12.6048 13.8291 12.21 13.989 11.9844C13.8934 11.6166 13.326 10.7553 13.0436 10.3268C12.8945 10.1004 12.7536 9.88654 12.6405 9.70001C12.4536 9.39044 12.3067 9.13054 12.1888 8.92165C12.0585 8.6909 11.9121 8.43176 11.8386 8.34731C11.8102 8.3425 11.7505 8.33588 11.6367 8.3353C11.0798 8.4205 8.95019 9.97522 8.95019 11.6103C8.9521 14.3133 10.5964 17.6114 13.3492 20.4337Z" fill="white"/>
<path d="M0.831171 34.0355C0.621517 34.0355 0.415022 33.9564 0.257303 33.8065C0.0174024 33.5784 -0.063368 33.23 0.0516382 32.9202L2.79243 25.5388C0.785302 22.4087 -0.154609 18.6859 0.141632 15.0072C0.453911 11.1299 2.1333 7.49268 4.87027 4.76567C7.95466 1.69249 12.0845 0 16.499 0C21.0721 0 25.3936 1.7964 28.6675 5.05835C35.3094 11.6761 35.4412 22.3126 28.9613 28.7691C25.8774 31.8417 21.7478 33.5341 17.3341 33.5341C17.3338 33.5341 17.3339 33.5341 17.3337 33.5341C14.1343 33.5341 11.0184 32.6431 8.29345 30.9533L1.1555 33.9698C1.0508 34.0139 0.940527 34.0355 0.831171 34.0355ZM8.37231 29.1925C8.53252 29.1925 8.69173 29.2387 8.82951 29.329C11.3704 30.9966 14.3111 31.8781 17.3337 31.8782C21.3037 31.8782 25.0158 30.3583 27.7861 27.5981C33.618 21.7874 33.4862 12.2013 27.4923 6.22923C24.5323 3.28 20.6281 1.6559 16.499 1.6559C12.5284 1.6559 8.81596 3.17609 6.04551 5.93656C1.01764 10.9461 0.328185 18.9512 4.40617 24.9708C4.55591 25.1918 4.58965 25.4712 4.49675 25.7212L2.27806 31.6967L8.04798 29.2583C8.15202 29.2142 8.26245 29.1925 8.37231 29.1925Z" fill="white"/>
</svg>
